<?xml version="1.0" encoding="utf-8"?><svg width="265" height="240" viewBox="0 0 265 240" xmlns="http://www.w3.org/2000/svg" xmlns:xlink="http://www.w3.org/1999/xlink"><svg data-name="Layer 1" viewBox="0 0 24 24" width="24" height="24" id="..|..|assets|icon|admin.svg" x="193" y="72" xmlns="http://www.w3.org/2000/svg"><path d="M13.9 20.3h4.2s0-5.3-4.7-6.1v-.4s2.1-1.5 1.2-3.2l.7-3.8v-.3s-1 1.9-2 1.2-1.3-.5-1.3-.5l-1 4.4-1 2.7.2 1.4z" fill="#fff"/><path d="M9.1 9.9a5 5 0 012.8-.8c1.5.1 1.2.2 1.2.2l.3-1.6a16.67 16.67 0 00-1.5-2.3s-.6 2.7-1.6 2.6-1.9-1.5-1.9-1.5z" fill="#ededed"/><path d="M9.1 10.4s2-1.6 3.7-.9c0 0 .4 3.1-1.9 4.1v.9a6.74 6.74 0 014.7 5.4l-.6.2H6s-.1-2.5.7-3.4 2.4-2.6 3.5-2.6v-.7S8.7 11.8 8.8 11s.3-.6.3-.6z" fill="#ededed"/><path d="M18.1 20.1a6.2 6.2 0 00-12.4 0z" fill="none" stroke="#000" stroke-miterlimit="10" stroke-width=".8"/><path d="M9.4 9.8h0a5.07 5.07 0 015.3.2 3 3 0 01.2 1 2.9 2.9 0 01-5.8 0 2.66 2.66 0 01.3-1.2h0" fill="none" stroke="#000" stroke-miterlimit="10" stroke-width=".8"/><path d="M9.2 10.3l-1-4.1 1.2 1.5a1 1 0 001.6-.2l1-2.4 1.1 2.3a.94.94 0 001.6.1l1-1.5-.9 4.3" fill="none" stroke="#000" stroke-miterlimit="10" stroke-width=".5"/><circle cx="12" cy="4.5" r=".8"/><circle cx="15.8" cy="5.4" r=".8"/><circle cx="7.9" cy="5.5" r=".8"/></svg><svg data-name="Layer 1" viewBox="0 0 24 24" width="24" height="24" id="..|..|assets|icon|adminClicked.svg" x="96" y="167.82999999999998" xmlns="http://www.w3.org/2000/svg"><path d="M5.7 20.1h12.4a6.83 6.83 0 00-5-6.2s2.8-2.2 1.6-3.9-5.1-.3-5.1-.3-1.8 2.2 1.3 4.2c0 0-5.3 1.4-5.2 6.2z" fill="#79e0ff"/><path d="M8.3 6.4s2.1 3.6 2.9.4l.8-2 1.4 2.9s.5.5 1.3-.2a3.27 3.27 0 001-1.5l-1 4s-1.2-2-5.6-.2z" fill="#ffbc79"/><path d="M18.1 20.1a6.2 6.2 0 00-12.4 0z" fill="none" stroke="#000" stroke-miterlimit="10" stroke-width=".8"/><path d="M9.4 9.8h0a5.07 5.07 0 015.3.2 3 3 0 01.2 1 2.9 2.9 0 01-5.8 0 2.66 2.66 0 01.3-1.2h0" fill="none" stroke="#000" stroke-miterlimit="10" stroke-width=".8"/><path d="M9.2 10.3l-1-4.1 1.2 1.5a1 1 0 001.6-.2l1-2.4 1.1 2.3a.94.94 0 001.6.1l1-1.5-.9 4.3" fill="none" stroke="#000" stroke-miterlimit="10" stroke-width=".5"/><circle cx="12" cy="4.5" r=".8"/><circle cx="15.8" cy="5.4" r=".8"/><circle cx="7.9" cy="5.5" r=".8"/></svg><svg data-name="Layer 1" viewBox="0 0 24 24" width="24" height="24" id="..|..|assets|icon|adminHover.svg" x="193" y="96" xmlns="http://www.w3.org/2000/svg"><path d="M13.9 20.3h4.2s0-5.3-4.7-6.1v-.4s2.1-1.5 1.2-3.2l.7-3.8v-.3s-1 1.9-2 1.2-1.3-.5-1.3-.5l-1 4.4-1 2.7.2 1.4z" fill="#fff"/><path d="M9.1 9.9a5 5 0 012.8-.8c1.5.1 1.2.2 1.2.2l.3-1.6a16.67 16.67 0 00-1.5-2.3s-.8 2.7-1.8 2.6-1.7-1.5-1.7-1.5z" fill="#f4dfd3"/><path d="M9.1 10.4s2-1.6 3.7-.9c0 0 .4 3.1-1.9 4.1v.9a6.74 6.74 0 014.7 5.4l-.6.2H6s-.1-2.5.7-3.4 2.4-2.6 3.5-2.6v-.7S8.7 11.8 8.8 11s.3-.6.3-.6z" fill="#d6f6ff"/><path d="M18.1 20.1a6.2 6.2 0 00-12.4 0z" fill="none" stroke="#000" stroke-miterlimit="10" stroke-width=".8"/><path d="M9.4 9.8h0a5.07 5.07 0 015.3.2 3 3 0 01.2 1 2.9 2.9 0 01-5.8 0 2.66 2.66 0 01.3-1.2h0" fill="none" stroke="#000" stroke-miterlimit="10" stroke-width=".8"/><path d="M9.2 10.3l-1-4.1 1.2 1.5a1 1 0 001.6-.2l1-2.4 1.1 2.3a.94.94 0 001.6.1l1-1.5-.9 4.3" fill="none" stroke="#000" stroke-miterlimit="10" stroke-width=".5"/><circle cx="12" cy="4.5" r=".8"/><circle cx="15.8" cy="5.4" r=".8"/><circle cx="7.9" cy="5.5" r=".8"/></svg><svg data-name="Layer 1" viewBox="0 0 24 24" width="24" height="24" id="..|..|assets|icon|banned.svg" x="193" y="120" xmlns="http://www.w3.org/2000/svg"><path d="M12 4.78A7.22 7.22 0 1019.22 12 7.22 7.22 0 0012 4.78zM17.53 12a5.53 5.53 0 01-1.1 3.31L8.69 7.57A5.53 5.53 0 0117.53 12zM6.47 12a5.56 5.56 0 011-3.23l7.72 7.72A5.53 5.53 0 016.47 12z" fill="#ededed" stroke="#000" stroke-miterlimit="10" stroke-width=".8"/></svg><svg data-name="Layer 1" viewBox="0 0 24 24" width="24" height="24" id="..|..|assets|icon|bounty-clicked.svg" x="48" y="191.82999999999998" xmlns="http://www.w3.org/2000/svg"><path fill="#ffbc79" stroke="#000" stroke-linejoin="round" stroke-width=".75" d="M13.3 18.1l-1.7-1.3-1.8 1.3-1-2-2.2.3v-2.2l-2-.7 1-2-1.4-1.6L6 8.7l-.5-2.1 2.1-.3.5-2.1 2.1.8 1.4-1.6L13 5l2.1-.7.5 2.1 2.1.2-.5 2.1L19 10l-1.5 1.6 1 1.9-2 .8v2.1l-2.1-.2-1.1 1.9z"/><path d="M9.5 19L8 21.8a.21.21 0 01-.4 0l-1.1-2-2.3.1c-.2 0-.3-.2-.2-.4l1.7-3M17.7 16.7l1.7 2.7c.1.2 0 .4-.2.4h-2.3l-1 2.1a.21.21 0 01-.4 0l-1.9-3" fill="none" stroke="#000" stroke-miterlimit="10" stroke-width=".75"/><circle cx="11.6" cy="10.7" r="3.5" fill="#fff" stroke="#000" stroke-miterlimit="10" stroke-width=".703"/></svg><svg data-name="Layer 1" viewBox="0 0 24 24" width="24" height="24" id="..|..|assets|icon|bounty.svg" x="72" y="191.82999999999998" xmlns="http://www.w3.org/2000/svg"><path fill="#ededed" stroke="#000" stroke-linejoin="round" stroke-width=".75" d="M13.3 18.1l-1.7-1.3-1.8 1.3-1-2-2.2.3v-2.2l-2-.7 1-2-1.4-1.6L6 8.7l-.5-2.1 2.1-.3.5-2.1 2.1.8 1.4-1.6L13 5l2.1-.7.5 2.1 2.1.2-.5 2.1L19 10l-1.5 1.6 1 1.9-2 .8v2.1l-2.1-.2-1.1 1.9z"/><path d="M9.5 19L8 21.8a.21.21 0 01-.4 0l-1.1-2-2.3.1c-.2 0-.3-.2-.2-.4l1.7-3M17.7 16.7l1.7 2.7c.1.2 0 .4-.2.4h-2.3l-1 2.1a.21.21 0 01-.4 0l-1.9-3" fill="none" stroke="#000" stroke-miterlimit="10" stroke-width=".75"/><circle cx="11.6" cy="10.7" r="3.5" fill="#fff" stroke="#000" stroke-miterlimit="10" stroke-width=".703"/></svg><svg data-name="Layer 1" viewBox="0 0 24 24" width="24" height="24" id="..|..|assets|icon|bountyClicked.svg" x="96" y="191.82999999999998" xmlns="http://www.w3.org/2000/svg"><path fill="#ffbc79" stroke="#000" stroke-linejoin="round" stroke-width=".75" d="M13.3 18.1l-1.7-1.3-1.8 1.3-1-2-2.2.3v-2.2l-2-.7 1-2-1.4-1.6L6 8.7l-.5-2.1 2.1-.3.5-2.1 2.1.8 1.4-1.6L13 5l2.1-.7.5 2.1 2.1.2-.5 2.1L19 10l-1.5 1.6 1 1.9-2 .8v2.1l-2.1-.2-1.1 1.9z"/><path d="M9.5 19L8 21.8a.21.21 0 01-.4 0l-1.1-2-2.3.1c-.2 0-.3-.2-.2-.4l1.7-3M17.7 16.7l1.7 2.7c.1.2 0 .4-.2.4h-2.3l-1 2.1a.21.21 0 01-.4 0l-1.9-3" fill="none" stroke="#000" stroke-miterlimit="10" stroke-width=".75"/><circle cx="11.6" cy="10.7" r="3.5" fill="#fff" stroke="#000" stroke-miterlimit="10" stroke-width=".703"/></svg><svg id="..|..|assets|icon|clear.svg" data-name="Layer 1" viewBox="0 0 24 24" width="24" height="24" x="73" y="24" xmlns="http://www.w3.org/2000/svg"><defs><style>.ahcls-1{opacity:0}.ahcls-2{fill:#fff}.ahcls-3{fill:#606060}</style></defs><g class="ahcls-1"><path class="ahcls-2" d="M23.3 1v22h-22V1h22m1-1H.3v24h24V0z" transform="translate(-.3)"/></g><path class="ahcls-3" d="M17 9.93v3.14a2.23 2.23 0 01-.5 1.32 2 2 0 01-1.48.49H9.23a.35.35 0 01-.33-.33.36.36 0 01.33-.33h5.7a1.22 1.22 0 001-.33 1.14 1.14 0 00.33-.74v-2.4M7.5 13.89v-3.14A2.23 2.23 0 018 9.43a2 2 0 011.48-.5h5.79a.34.34 0 010 .67h-5.7a1.43 1.43 0 00-1 .33 1.14 1.14 0 00-.33.74v2.4" transform="translate(-.3)"/><path class="ahcls-3" d="M9.51 16.7v-4.05l-2.06 2.07 2.06 1.98zM14.3 7.2v4.13l2.07-2.06L14.3 7.2z"/></svg><svg version="1.1" id="..|..|assets|icon|close.svg" y="71.83" viewBox="0 0 24 24" xml:space="preserve" width="24" height="24" xmlns="http://www.w3.org/2000/svg"><style>.aist0{fill:none}.aist1{fill:#7e7e7e}</style><path class="aist0" d="M578.6 1012.4h32v36.5h-32z"/><path class="aist0" d="M578.6 1012.4h32v36.5h-32z"/><path class="aist1" d="M20.9 20.1c.2.2.2.6 0 .8-.1.1-.3.2-.4.2-.1 0-.3-.1-.4-.2L12 12.8l-8.1 8.1c-.1.1-.3.2-.4.2-.2 0-.3-.1-.4-.2-.2-.2-.2-.6 0-.8l8.1-8.1L3 3.9c-.2-.2-.2-.6 0-.8.2-.2.6-.2.9 0l8.1 8.1 8-8.1c.2-.2.6-.2.9 0 .2.2.2.6 0 .8L12.8 12l8.1 8.1z"/></svg><svg version="1.1" id="..|..|assets|icon|dislike.svg" x="24" y="71.83" viewBox="0 0 24 24" xml:space="preserve" width="24" height="24" xmlns="http://www.w3.org/2000/svg"><style>.ajst0{fill:#fff}.ajst1{fill:#ededed}.ajst2{fill:#7e7e7e}</style><path class="ajst0" d="M9 5.4l5.2-.1.2 1.5.7 1.8s.1 1 .2 1.1c.1.1.3 1.3.3 1.3s.2.7.3.8c.1 0 .2.2.3.3.1.1.7.9.7.9s.3.2.4.3.6.1.6.1l.6.1c.1 0 .9-.2.9-.2l.1-.3v-.4l.1-.4-.1-.4-.1-.1-.4-.1-.7-.3H18l-.3-.1-.1-.4v-.4c.1-.1.5-.6.5-.6l.1-.3-1.2-1 .2-.7.1-.8-.3-.3-1-.5s-.3-.3-.2-.4c.1 0 .4-.7.4-.7l.1-.4-.1-.4-.4-.1-.7-.2h-4.6L9 5.4z"/><path class="ajst1" d="M4.7 3.9h3.7v2.9s.5-1.6 1-1.6h4.5s1.7-.2.7.8c-.3.3 0 1.5.4 1.5s.3.3.3.3-.3 1.6 1 1.9c0 0-1.1 1.5.2 2.6s3 .2 3 .2.6 1.2-1.9 1.1-4.1 0-4.1 0v.4s1.2 3.6-.2 5.6-2.2-1.4-2.1-1.5-.2-3-.2-3-1.4-3.3-2.2-3.6-.3.5-.3.5l-.1 1.3-4.1.2.4-9.6z"/><path class="ajst2" d="M19.5 11.1c-.3-.3-.8-.3-1.1-.3H18c.1-.1.1-.2.2-.3s.3-.3.3-.5c.1-.3 0-.6-.2-.9l-.4-.4c-.1-.1-.3-.2-.4-.4 0-.1 0-.2.1-.4s.2-.6.1-.9c-.2-.4-.6-.7-.8-.8l-.1-.1s-.2-.1-.3-.1v-.1-.1c.2-.4.4-.9.1-1.3-.1-.3-.4-.7-1.2-.8-.6-.1-1.3-.1-2.1-.1-1.2 0-2.6.1-3 .1-.1 0-.2 0-.3.1-.1.1-.7.5-1.2 1v-.7c0-.3-.2-.6-.6-.6H4.5c-.4 0-.5.2-.5.5v9.2c0 .4.2.6.6.6h3.7c.3 0 .6-.3.6-.6v-1c.9 1.2 1.5 2.6 1.8 4.2.2.7.4 1.4.4 2.3.1.4.1 1.7 1.2 1.8 1.5.3 1.9-1.4 2.1-2 .3-1.5.1-3.1-.5-4.4V14h1.4c1.1 0 2.1.1 3.2 0 .9-.1 1.3-.5 1.5-.9.1-.6.1-1.5-.5-2zM8 12.9H4.8V4.4H8v8.5zm11.2 0c0 .1-.1.4-.7.4H14c-.3 0-.7.1-.8.4-.2.3-.2.6-.1.9.6 1.2.7 2.6.4 3.8-.3 1.2-.6 1.5-1.2 1.4-.3-.1-.4-.4-.4-1.1 0-.9-.1-1.6-.4-2.5-.5-2.2-1.4-3.9-2.7-5.3V6c.5-.7 1.4-1.5 1.6-1.5.4 0 3.5-.2 4.9 0 .4.1.4.1.5.3.1.2 0 .4-.1.5-.1.3-.1.6-.1.9.1.4.5.7.7.7 0 .1.1.1.1.1.2.1.3.2.4.4 0 .1 0 .2-.1.4-.1.4-.2.7.1 1.2.1.2.4.4.5.5l.3.3.1.1s-.1.1-.1.2c-.2.4-.5.8-.4 1.2.1.3.4.4.7.5h.5s.4-.1.6.1c.2.2.3.7.2 1z"/></svg><svg data-name="Layer 1" viewBox="0 0 24 24" width="24" height="24" id="..|..|assets|icon|dislikeClicked.svg" x="48" y="71.83" xmlns="http://www.w3.org/2000/svg"><path d="M4.7 3.9h3.7L8.5 6s1.3-1.9 1.8-1.9 4.6-.1 4.6-.1 2 .8 1 1.8c-.3.3.3.8.7.8s.8 1.1.8 1.1.4 2.2 1.1 1.8c0 0-2 1.8-.3 1.7 1.1-.1 1.5 1.3 1.5 1.3s.6 1.2-1.9 1.1-4.1 0-4.1 0v.4s1.2 3.6-.2 5.6-2.2-1.4-2.1-1.5a28.32 28.32 0 00-.2-3S9.8 11.8 9 11.5s-.5.5-.5.5l-.1 1.3-4.1.2z" fill="#f4afaf"/><path d="M19.5 11.1a1.55 1.55 0 00-1.1-.3H18c.1-.1.1-.2.2-.3a.85.85 0 00.3-.5 1 1 0 00-.2-.9l-.4-.4c-.1-.1-.3-.2-.4-.4a.76.76 0 01.1-.4 1.34 1.34 0 00.1-.9 2 2 0 00-.8-.8l-.1-.1a1 1 0 00-.3-.1v-.2a1.23 1.23 0 00.1-1.3 1.29 1.29 0 00-1.2-.8 13.42 13.42 0 00-2.1-.1c-1.2 0-2.6.1-3 .1a.37.37 0 00-.3.1 14.73 14.73 0 00-1.2 1v-.7a.58.58 0 00-.6-.6H4.5c-.4 0-.5.2-.5.5v9.2a.53.53 0 00.6.6h3.7a.65.65 0 00.6-.6v-1a9.94 9.94 0 011.8 4.2 7.88 7.88 0 01.4 2.3c.1.4.1 1.7 1.2 1.8 1.5.3 1.9-1.4 2.1-2a7.3 7.3 0 00-.5-4.4V14h1.4c1.1 0 2.1.1 3.2 0a1.72 1.72 0 001.5-.9 2.14 2.14 0 00-.5-2zM8 12.9H4.8V4.4H8zm11.2 0c0 .1-.1.4-.7.4H14c-.3 0-.7.1-.8.4a1 1 0 00-.1.9 5.6 5.6 0 01.4 3.8c-.3 1.2-.6 1.5-1.2 1.4-.3-.1-.4-.4-.4-1.1a7.27 7.27 0 00-.4-2.5 11.14 11.14 0 00-2.7-5.3V6a5 5 0 011.6-1.5 39.12 39.12 0 014.9 0c.4.1.4.1.5.3a.44.44 0 01-.1.5 2.77 2.77 0 00-.1.9 1 1 0 00.7.7.1.1 0 00.1.1.78.78 0 01.4.4.76.76 0 01-.1.4 1.3 1.3 0 00.1 1.2c.1.2.4.4.5.5l.3.3.1.1a.35.35 0 00-.1.2c-.2.4-.5.8-.4 1.2s.4.4.7.5h.5s.4-.1.6.1a1.16 1.16 0 01.2 1z" fill="#7e7e7e"/></svg><svg version="1.1" id="..|..|assets|icon|dislikeHover.svg" x="72" y="71.83" viewBox="0 0 24 24" xml:space="preserve" width="24" height="24" xmlns="http://www.w3.org/2000/svg"><style>.alst0{fill:#fff}.alst1{fill:#ffd8d8}.alst2{fill:#7e7e7e}</style><path class="alst0" d="M9 5.4l5.2-.1.2 1.5.7 1.8s.1 1 .2 1.1c.1.1.3 1.3.3 1.3s.2.7.3.8c.1 0 .2.2.3.3.1.1.7.9.7.9s.3.2.4.3.6.1.6.1l.6.1c.1 0 .9-.2.9-.2l.1-.3v-.4l.1-.4-.1-.4-.1-.1-.4-.1-.7-.3H18l-.3-.1-.1-.4v-.4c.1-.1.5-.6.5-.6l.1-.3-1.2-1 .2-.7.1-.8-.3-.3-1-.5s-.3-.3-.2-.4c.1 0 .4-.7.4-.7l.1-.4-.1-.4-.4-.1-.7-.2h-4.6L9 5.4z"/><path class="alst1" d="M4.7 3.9h3.7v2.9s.5-1.6 1-1.6h4.5s1.7-.2.7.8c-.3.3 0 1.5.4 1.5s.3.3.3.3-.3 1.6 1 1.9c0 0-1.1 1.5.2 2.6s3 .2 3 .2.6 1.2-1.9 1.1-4.1 0-4.1 0v.4s1.2 3.6-.2 5.6-2.2-1.4-2.1-1.5-.2-3-.2-3-1.4-3.3-2.2-3.6-.3.5-.3.5l-.1 1.3-4.1.2.4-9.6z"/><path class="alst2" d="M19.5 11.1c-.3-.3-.8-.3-1.1-.3H18c.1-.1.1-.2.2-.3s.3-.3.3-.5c.1-.3 0-.6-.2-.9l-.4-.4c-.1-.1-.3-.2-.4-.4 0-.1 0-.2.1-.4s.2-.6.1-.9c-.2-.4-.6-.7-.8-.8l-.1-.1s-.2-.1-.3-.1v-.1-.1c.2-.4.4-.9.1-1.3-.1-.3-.4-.7-1.2-.8-.6-.1-1.3-.1-2.1-.1-1.2 0-2.6.1-3 .1-.1 0-.2 0-.3.1-.1.1-.7.5-1.2 1v-.7c0-.3-.2-.6-.6-.6H4.5c-.4 0-.5.2-.5.5v9.2c0 .4.2.6.6.6h3.7c.3 0 .6-.3.6-.6v-1c.9 1.2 1.5 2.6 1.8 4.2.2.7.4 1.4.4 2.3.1.4.1 1.7 1.2 1.8 1.5.3 1.9-1.4 2.1-2 .3-1.5.1-3.1-.5-4.4V14h1.4c1.1 0 2.1.1 3.2 0 .9-.1 1.3-.5 1.5-.9.1-.6.1-1.5-.5-2zM8 12.9H4.8V4.4H8v8.5zm11.2 0c0 .1-.1.4-.7.4H14c-.3 0-.7.1-.8.4-.2.3-.2.6-.1.9.6 1.2.7 2.6.4 3.8-.3 1.2-.6 1.5-1.2 1.4-.3-.1-.4-.4-.4-1.1 0-.9-.1-1.6-.4-2.5-.5-2.2-1.4-3.9-2.7-5.3V6c.5-.7 1.4-1.5 1.6-1.5.4 0 3.5-.2 4.9 0 .4.1.4.1.5.3.1.2 0 .4-.1.5-.1.3-.1.6-.1.9.1.4.5.7.7.7 0 .1.1.1.1.1.2.1.3.2.4.4 0 .1 0 .2-.1.4-.1.4-.2.7.1 1.2.1.2.4.4.5.5l.3.3.1.1s-.1.1-.1.2c-.2.4-.5.8-.4 1.2.1.3.4.4.7.5h.5s.4-.1.6.1c.2.2.3.7.2 1z"/></svg><svg data-name="Layer 1" viewBox="0 0 23.9 23.9" width="23.9" height="23.9" id="..|..|assets|icon|downvote.svg" x="241" y="167.8" xmlns="http://www.w3.org/2000/svg"><path d="M9 7l5.2-.1.2 1.5.7 1.8a5.16 5.16 0 00.2 1.1 7.89 7.89 0 01.3 1.3 4.12 4.12 0 00.3.8c.1 0 .2.2.3.3s.7.9.7.9a4 4 0 01.4.3c.1.1.6.1.6.1l.6.1c.1 0 .9-.2.9-.2l.1-.3v-.4l.1-.4-.1-.4-.1-.1-.4-.1-.7-.3H18l-.3-.1-.1-.4V12c.1-.1.5-.6.5-.6l.1-.3L17 10l.2-.7.1-.7-.4-.4-.9-.4s-.3-.3-.2-.4.4-.7.4-.7l.1-.4-.1-.3-.4-.1-.8-.3h-4.6z" fill="#fff"/><path d="M14 15l4 .1a.92.92 0 00-.4-1.1c-2.3-.5-.9-2.6-.9-2.6l-.1-.1s-1.5-.9-.9-1.5-.1-1-.1-1-.2-.1-.7-.4-.4-1-.4-1.4-.2-.3-.2-.3l-5-.1a6 6 0 01-.8.8l.1 5.2a9.92 9.92 0 012.6 5.1 11.34 11.34 0 01.3 2.5c.1.7.4 1.2.7 1.3.6.1 1.1-.5 1.4-1.6a6.19 6.19 0 00-.2-3.8c-.1-.3-.3-.6-.1-.9a.84.84 0 01.7-.2zM4.5 5.8h3.6V15H4.5z" fill="#ededed"/><path d="M19.5 12.7a1.55 1.55 0 00-1.1-.3H18c.1-.1.1-.2.2-.3a.85.85 0 00.3-.5 1 1 0 00-.2-.9l-.4-.4c-.1-.1-.3-.2-.4-.4a.76.76 0 01.1-.4 1.34 1.34 0 00.1-.9 2 2 0 00-.8-.8l-.1-.1c-.1 0-.1-.1-.2-.1v-.2a1.23 1.23 0 00.1-1.3 1.29 1.29 0 00-1.2-.8 13.42 13.42 0 00-2.1-.1c-1.2 0-2.6.1-3 .1a.37.37 0 00-.3.1 6.39 6.39 0 00-1.3 1v-.7a.58.58 0 00-.6-.6H4.5c-.4 0-.5.2-.5.5v9.2a.53.53 0 00.6.6h3.7a.65.65 0 00.6-.6v-1a9.94 9.94 0 011.8 4.2 7.88 7.88 0 01.4 2.3c.1.4.1 1.7 1.2 1.8 1.5.3 1.9-1.4 2.1-2a7.3 7.3 0 00-.5-4.4v-.1h1.4c1.1 0 2.1.1 3.2 0a1.72 1.72 0 001.5-.9 2.14 2.14 0 00-.5-2zM8 14.5H4.8V6H8zm11.1 0c0 .1-.1.4-.7.4h-4.5c-.3 0-.7.1-.8.4a1 1 0 00-.1.9 5.6 5.6 0 01.4 3.8c-.3 1.2-.6 1.5-1.2 1.4-.3-.1-.4-.4-.4-1.1a7.27 7.27 0 00-.4-2.5 11.14 11.14 0 00-2.7-5.3V7.6a5 5 0 011.6-1.5 39.12 39.12 0 014.9 0c.4.1.4.1.5.3a.44.44 0 01-.1.5 2.77 2.77 0 00-.1.9 1 1 0 00.7.7.1.1 0 00.1.1.78.78 0 01.4.4.76.76 0 01-.1.4 1.3 1.3 0 00.1 1.2c.1.2.4.4.5.5l.3.3.1.1a.35.35 0 00-.1.2c-.2.4-.5.8-.4 1.2s.4.4.7.5h.5s.4-.1.6.1a.78.78 0 01.2 1z" fill="#191919"/></svg><svg data-name="Layer 1" viewBox="0 0 23.9 23.9" width="23.9" height="23.9" id="..|..|assets|icon|downvoteClicked.svg" x="241" y="143.9" xmlns="http://www.w3.org/2000/svg"><path d="M14 15l5.4.1a4.49 4.49 0 00-.2-2c-2.3-.5-1.4-1.2-1.4-1.2l.1-1.1s-1-.2-.9-1a1.57 1.57 0 00-.7-1.6s.3-.2-.2-.5 0-.8 0-1.2-1.7-.8-1.7-.8h-4.3c-.3.3-1.4 1.5-1.6 1.7l.1 5.2a9.92 9.92 0 012.6 5.1 11.34 11.34 0 01.3 2.5c.1.7.4 1.2.7 1.3.6.1 1.1-.5 1.4-1.6a6.19 6.19 0 00-.2-3.8c-.1-.3-.3-.6-.1-.9a.84.84 0 01.7-.2zM4.5 5.8h3.6V15H4.5z" fill="#fc738d"/><path d="M19.5 12.7a1.55 1.55 0 00-1.1-.3H18c.1-.1.1-.2.2-.3a.85.85 0 00.3-.5 1 1 0 00-.2-.9l-.4-.4c-.1-.1-.3-.2-.4-.4a.76.76 0 01.1-.4 1.34 1.34 0 00.1-.9 2 2 0 00-.8-.8l-.1-.1c-.1 0-.1-.1-.2-.1v-.2a1.23 1.23 0 00.1-1.3 1.29 1.29 0 00-1.2-.8 13.42 13.42 0 00-2.1-.1c-1.2 0-2.6.1-3 .1a.37.37 0 00-.3.1 6.39 6.39 0 00-1.3 1v-.7a.58.58 0 00-.6-.6H4.5c-.4 0-.5.2-.5.5v9.2a.53.53 0 00.6.6h3.7a.65.65 0 00.6-.6v-1a9.94 9.94 0 011.8 4.2 7.88 7.88 0 01.4 2.3c.1.4.1 1.7 1.2 1.8 1.5.3 1.9-1.4 2.1-2a7.3 7.3 0 00-.5-4.4v-.1h1.4c1.1 0 2.1.1 3.2 0a1.72 1.72 0 001.5-.9 2.14 2.14 0 00-.5-2zM8 14.5H4.8V6H8zm11.1 0c0 .1-.1.4-.7.4h-4.5c-.3 0-.7.1-.8.4a1 1 0 00-.1.9 5.6 5.6 0 01.4 3.8c-.3 1.2-.6 1.5-1.2 1.4-.3-.1-.4-.4-.4-1.1a7.27 7.27 0 00-.4-2.5 11.14 11.14 0 00-2.7-5.3V7.6a5 5 0 011.6-1.5 39.12 39.12 0 014.9 0c.4.1.4.1.5.3a.44.44 0 01-.1.5 2.77 2.77 0 00-.1.9 1 1 0 00.7.7.1.1 0 00.1.1.78.78 0 01.4.4.76.76 0 01-.1.4 1.3 1.3 0 00.1 1.2c.1.2.4.4.5.5l.3.3.1.1a.35.35 0 00-.1.2c-.2.4-.5.8-.4 1.2s.4.4.7.5h.5s.4-.1.6.1a.78.78 0 01.2 1z" fill="#191919"/></svg><svg data-name="Layer 1" viewBox="0 0 23.9 23.9" width="23.9" height="23.9" id="..|..|assets|icon|downvoteHover.svg" x="241" y="120" xmlns="http://www.w3.org/2000/svg"><path d="M9 7l5.2-.1.2 1.5.7 1.8a5.16 5.16 0 00.2 1.1 7.89 7.89 0 01.3 1.3 4.12 4.12 0 00.3.8c.1 0 .2.2.3.3s.7.9.7.9a4 4 0 01.4.3c.1.1.6.1.6.1l.6.1c.1 0 .9-.2.9-.2l.1-.3v-.4l.1-.4-.1-.4-.1-.1-.4-.1-.7-.3H18l-.3-.1-.1-.4V12c.1-.1.5-.6.5-.6l.1-.3L17 10l.2-.7.1-.7-.4-.4-.9-.4s-.3-.3-.2-.4.4-.7.4-.7l.1-.4-.1-.3-.4-.1-.8-.3h-4.6z" fill="#fff"/><path d="M14 15l4 .1a.92.92 0 00-.4-1.1c-2.3-.5-.9-2.6-.9-2.6l-.1-.1s-1.5-.9-.9-1.5-.1-1-.1-1-.2-.1-.7-.4-.4-1-.4-1.4-.2-.3-.2-.3l-5-.1a6 6 0 01-.8.8l.1 5.2a9.92 9.92 0 012.6 5.1 11.34 11.34 0 01.3 2.5c.1.7.4 1.2.7 1.3.6.1 1.1-.5 1.4-1.6a6.19 6.19 0 00-.2-3.8c-.1-.3-.3-.6-.1-.9a.84.84 0 01.7-.2zM4.5 5.8h3.6V15H4.5z" fill="#ffd8d8"/><path d="M19.5 12.7a1.55 1.55 0 00-1.1-.3H18c.1-.1.1-.2.2-.3a.85.85 0 00.3-.5 1 1 0 00-.2-.9l-.4-.4c-.1-.1-.3-.2-.4-.4a.76.76 0 01.1-.4 1.34 1.34 0 00.1-.9 2 2 0 00-.8-.8l-.1-.1c-.1 0-.1-.1-.2-.1v-.2a1.23 1.23 0 00.1-1.3 1.29 1.29 0 00-1.2-.8 13.42 13.42 0 00-2.1-.1c-1.2 0-2.6.1-3 .1a.37.37 0 00-.3.1 6.39 6.39 0 00-1.3 1v-.7a.58.58 0 00-.6-.6H4.5c-.4 0-.5.2-.5.5v9.2a.53.53 0 00.6.6h3.7a.65.65 0 00.6-.6v-1a9.94 9.94 0 011.8 4.2 7.88 7.88 0 01.4 2.3c.1.4.1 1.7 1.2 1.8 1.5.3 1.9-1.4 2.1-2a7.3 7.3 0 00-.5-4.4v-.1h1.4c1.1 0 2.1.1 3.2 0a1.72 1.72 0 001.5-.9 2.14 2.14 0 00-.5-2zM8 14.5H4.8V6H8zm11.1 0c0 .1-.1.4-.7.4h-4.5c-.3 0-.7.1-.8.4a1 1 0 00-.1.9 5.6 5.6 0 01.4 3.8c-.3 1.2-.6 1.5-1.2 1.4-.3-.1-.4-.4-.4-1.1a7.27 7.27 0 00-.4-2.5 11.14 11.14 0 00-2.7-5.3V7.6a5 5 0 011.6-1.5 39.12 39.12 0 014.9 0c.4.1.4.1.5.3a.44.44 0 01-.1.5 2.77 2.77 0 00-.1.9 1 1 0 00.7.7.1.1 0 00.1.1.78.78 0 01.4.4.76.76 0 01-.1.4 1.3 1.3 0 00.1 1.2c.1.2.4.4.5.5l.3.3.1.1a.35.35 0 00-.1.2c-.2.4-.5.8-.4 1.2s.4.4.7.5h.5s.4-.1.6.1a.78.78 0 01.2 1z" fill="#191919"/></svg><svg version="1.1" id="..|..|assets|icon|draft.svg" y="95.83" viewBox="0 0 24 24" xml:space="preserve" width="24" height="24" xmlns="http://www.w3.org/2000/svg"><style>.apst0{opacity:0}.apst1{fill:#fff}.apst2,.apst3{fill:none;stroke:#000;stroke-miterlimit:10}.apst3{stroke-linecap:round;stroke-linejoin:round}</style><g class="apst0"><path class="apst1" d="M23 1v22H1V1h22m1-1H0v24h24V0z"/></g><path class="apst2" d="M16.5 18.4H6.9c-.6 0-1.1-.5-1.1-1.1V6.5c0-.6.5-1.1 1.1-1.1H14l3.6 3.7v8.1c.1.7-.4 1.2-1.1 1.2z"/><path class="apst2" d="M14 5.4v3.7h3.4"/><path class="apst3" d="M11.7 7.2h-4 4zM11.9 9.1h-4 4zM15.7 10.9H7.9h7.8zM13.7 12.6h-6 6z"/></svg><svg version="1.1" id="..|..|assets|icon|draftClicked.svg" x="24" y="95.83" viewBox="0 0 24 24" xml:space="preserve" width="24" height="24" xmlns="http://www.w3.org/2000/svg"><style>.aqst0{opacity:0}.aqst1{fill:#fff}.aqst2,.aqst3{fill:none;stroke:#2faff9;stroke-miterlimit:10}.aqst3{stroke-linecap:round;stroke-linejoin:round}</style><g class="aqst0"><path class="aqst1" d="M23 1v22H1V1h22m1-1H0v24h24V0z"/></g><path class="aqst2" d="M16.5 18.4H6.9c-.6 0-1.1-.5-1.1-1.1V6.5c0-.6.5-1.1 1.1-1.1H14l3.6 3.7v8.1c.1.7-.4 1.2-1.1 1.2z"/><path class="aqst2" d="M14 5.4v3.7h3.4"/><path class="aqst3" d="M11.7 7.2h-4 4zM11.9 9.1h-4 4zM15.7 10.9H7.9h7.8zM13.7 12.6h-6 6z"/></svg><svg version="1.1" id="..|..|assets|icon|draftSolutions.svg" x="48" y="95.83" viewBox="0 0 24 24" xml:space="preserve" width="24" height="24" xmlns="http://www.w3.org/2000/svg"><style>.arst0{opacity:0}.arst1{fill:#fff}.arst2,.arst3{fill:none;stroke:#599076;stroke-miterlimit:10}.arst3{stroke-linecap:round;stroke-linejoin:round}</style><g class="arst0"><path class="arst1" d="M23 1v22H1V1h22m1-1H0v24h24V0z"/></g><path class="arst2" d="M16.5 18.4H6.9c-.6 0-1.1-.5-1.1-1.1V6.5c0-.6.5-1.1 1.1-1.1H14l3.6 3.7v8.1c.1.7-.4 1.2-1.1 1.2z"/><path class="arst2" d="M14 5.4v3.7h3.4"/><path class="arst3" d="M11.7 7.2h-4 4zM11.9 9.1h-4 4zM15.7 10.9H7.9h7.8zM13.7 12.6h-6 6z"/></svg><svg data-name="Layer 1" viewBox="0 0 24 24" width="24" height="24" id="..|..|assets|icon|duplicate.svg" x="72" y="95.83" xmlns="http://www.w3.org/2000/svg"><path fill="#fff" d="M8.1 6.4h9.7v12H8.1z"/><path fill="#ededed" d="M5.9 7.4H8v10l.2 1 1.2.2h6.1v.9l-.4.4-9 .2-.5-.5V8l.3-.6z"/><path fill="none" d="M14.9 18.9H16h-1.1z"/><path fill="#fff" d="M7.8 6.2h9.9v12.2H7.8z"/><path d="M17.4 18.5H8.3a.47.47 0 01-.5-.5V6.6a.47.47 0 01.5-.5h9.1a.47.47 0 01.5.5V18a.47.47 0 01-.5.5z" fill="none" stroke="#000" stroke-miterlimit="10" stroke-width=".8"/><path d="M15.6 18.5v.9a.47.47 0 01-.5.5H5.9a.47.47 0 01-.5-.5V7.9a.47.47 0 01.5-.5h1.8" fill="none" stroke="#000" stroke-miterlimit="10" stroke-width=".8"/><path fill="none" stroke="#000" stroke-linecap="round" stroke-miterlimit="10" stroke-width=".8" d="M10 10.8h5.6M10 13h5.6M10 15.1h5.6"/></svg><svg data-name="Layer 1" viewBox="0 0 24 24" width="24" height="24" id="..|..|assets|icon|duplicateClicked.svg" x="96" y="95.83" xmlns="http://www.w3.org/2000/svg"><path fill="#fc738d" d="M5.9 7.4H8v10l.2 1 1.2.2h6.1v.9l-.4.4-9 .2-.5-.5V8l.3-.6z"/><path fill="none" d="M14.9 18.9H16h-1.1z"/><path d="M17.4 18.5H8.3a.47.47 0 01-.5-.5V6.6a.47.47 0 01.5-.5h9.1a.47.47 0 01.5.5V18a.47.47 0 01-.5.5z" fill="#ffd8d8" stroke="#000" stroke-miterlimit="10" stroke-width=".8"/><path d="M15.6 18.5v.9a.47.47 0 01-.5.5H5.9a.47.47 0 01-.5-.5V7.9a.47.47 0 01.5-.5h1.8" fill="none" stroke="#000" stroke-miterlimit="10" stroke-width=".8"/><path fill="none" stroke="#000" stroke-linecap="round" stroke-miterlimit="10" stroke-width=".8" d="M10 10.8h5.6M10 13h5.6M10 15.1h5.6"/></svg><svg data-name="Layer 1" viewBox="0 0 24 24" width="24" height="24" id="..|..|assets|icon|duplicateHover.svg" x="121" xmlns="http://www.w3.org/2000/svg"><path fill="#fff" d="M8.1 6.4h9.7v12H8.1z"/><path fill="#f4dfd3" d="M5.9 7.4H8v10l.2 1 1.2.2h6.1v.9l-.4.4-9 .2-.5-.5V8l.3-.6z"/><path fill="none" d="M14.9 18.9H16h-1.1z"/><path fill="#fff" d="M7.8 6.2h9.9v12.2H7.8z"/><path d="M17.4 18.5H8.3a.47.47 0 01-.5-.5V6.6a.47.47 0 01.5-.5h9.1a.47.47 0 01.5.5V18a.47.47 0 01-.5.5z" fill="none" stroke="#000" stroke-miterlimit="10" stroke-width=".8"/><path d="M15.6 18.5v.9a.47.47 0 01-.5.5H5.9a.47.47 0 01-.5-.5V7.9a.47.47 0 01.5-.5h1.8" fill="none" stroke="#000" stroke-miterlimit="10" stroke-width=".8"/><path fill="none" stroke="#000" stroke-linecap="round" stroke-miterlimit="10" stroke-width=".8" d="M10 10.8h5.6M10 13h5.6M10 15.1h5.6"/></svg><svg data-name="Layer 1" viewBox="0 0 24 24" width="24" height="24" id="..|..|assets|icon|edit.svg" x="121" y="24" xmlns="http://www.w3.org/2000/svg"><path d="M4.8 19.9c.3-.1 10.1-9.3 10.1-9.3l-1.7-1.9s2.4-2.1 2.3-1.9a32.37 32.37 0 002.9 3.4l-8.9 9.1-4.6 1.2z" fill="#fff"/><path fill="#ededed" d="M4.9 20.2l1.2-4 7.5-7.6 2 2L8.1 18l-3.2 2.2z"/><path d="M9.5 19.3l-3.1-3.1a.45.45 0 010-.5L15.1 7a.45.45 0 01.5 0l3.1 3.1a.45.45 0 010 .5L10 19.3a.45.45 0 01-.5 0zM9.5 19.8L4.9 21a.27.27 0 01-.3-.3l1.2-4.5c0-.2.3-.2.4-.1l3.3 3.3c.2.1.1.3 0 .4z" fill="none" stroke="#000" stroke-miterlimit="10" stroke-width=".8"/><path fill="none" stroke="#000" stroke-linecap="round" stroke-miterlimit="10" stroke-width=".8" d="M16.9 5l3.7 3.7"/></svg><svg data-name="Layer 1" viewBox="0 0 24 24" width="24" height="24" id="..|..|assets|icon|editClicked.svg" x="121" y="48" xmlns="http://www.w3.org/2000/svg"><path d="M9.5 19.3l-3.1-3.1a.45.45 0 010-.5L15.1 7a.45.45 0 01.5 0l3.1 3.1a.45.45 0 010 .5L10 19.3a.45.45 0 01-.5 0zM9.5 19.8L4.9 21a.27.27 0 01-.3-.3l1.2-4.5c0-.2.3-.2.4-.1l3.3 3.3c.2.1.1.3 0 .4z" fill="#ffbc79" stroke="#000" stroke-miterlimit="10" stroke-width=".8"/><path fill="none" stroke="#000" stroke-linecap="round" stroke-miterlimit="10" stroke-width=".8" d="M16.9 5l3.7 3.7"/></svg><svg data-name="Layer 1" viewBox="0 0 24 24" width="24" height="24" id="..|..|assets|icon|editHover.svg" x="121" y="72" xmlns="http://www.w3.org/2000/svg"><path d="M4.8 19.9c.3-.1 10.1-9.3 10.1-9.3l-1.7-1.9s2.4-2.1 2.3-1.9a32.37 32.37 0 002.9 3.4l-8.9 9.1-4.6 1.2z" fill="#fff"/><path fill="#f4dfd3" d="M4.9 20.2l1.2-4 7.5-7.6 2 2L8.1 18l-3.2 2.2z"/><path d="M9.5 19.3l-3.1-3.1a.45.45 0 010-.5L15.1 7a.45.45 0 01.5 0l3.1 3.1a.45.45 0 010 .5L10 19.3a.45.45 0 01-.5 0zM9.5 19.8L4.9 21a.27.27 0 01-.3-.3l1.2-4.5c0-.2.3-.2.4-.1l3.3 3.3c.2.1.1.3 0 .4z" fill="none" stroke="#000" stroke-miterlimit="10" stroke-width=".8"/><path fill="none" stroke="#000" stroke-linecap="round" stroke-miterlimit="10" stroke-width=".8" d="M16.9 5l3.7 3.7"/></svg><svg data-name="Layer 1" viewBox="0 0 24 24" width="24" height="24" id="..|..|assets|icon|favourite.svg" y="119.83" xmlns="http://www.w3.org/2000/svg"><path d="M10.7 12.2L10 10l1-3.9s.7-1.6 2-.2l1.4 4.5 4.8.2s1.4.7.7 1.7L16.1 15l-3.6-1s-1.6-1.1-1.8-1.8z" fill="#fff"/><path d="M10.2 8.6l1.3 3.5a2.45 2.45 0 002.2 1.4l4.2.1-2.1 1.4 1.8 5.1c.1.4-.8 1-1.2.8l-4.2-2.7-.3-.1-3.7 2.7a1.1 1.1 0 01-.8 0l-.8-.9 1.6-4.6-4.5-3.7 1-1.1h3.7s1.1.1 1.1 0 .7-1.9.7-1.9z" fill="#ededed"/><path d="M11 6.2l-1.2 4.2c0 .1-.1.2-.3.2H5a1 1 0 00-.6 1.9L8 15.1a.37.37 0 01.1.3l-1.4 4.1a1.05 1.05 0 001.6 1.2l3.6-2.6a.19.19 0 01.3 0l3.5 2.6a1 1 0 001.6-1.2L16 15.4a.37.37 0 01.1-.3l3.5-2.5a1.05 1.05 0 00-.6-1.9h-4.4c-.1 0-.2-.1-.3-.2L13 6.2a1 1 0 00-2 0z" fill="none" stroke="#000" stroke-miterlimit="10" stroke-width=".8"/></svg><svg data-name="Layer 1" viewBox="0 0 24 24" width="24" height="24" id="..|..|assets|icon|favouriteClicked.svg" x="24" y="119.83" xmlns="http://www.w3.org/2000/svg"><path d="M11 6.2l-1.2 4.2c0 .1-.1.2-.3.2H5a1 1 0 00-.6 1.9L8 15.1a.37.37 0 01.1.3l-1.4 4.1a1.05 1.05 0 001.6 1.2l3.6-2.6a.19.19 0 01.3 0l3.5 2.6a1 1 0 001.6-1.2L16 15.4a.37.37 0 01.1-.3l3.5-2.5a1.05 1.05 0 00-.6-1.9h-4.4c-.1 0-.2-.1-.3-.2L13 6.2a1 1 0 00-2 0z" fill="#ffbc79" stroke="#000" stroke-miterlimit="10" stroke-width=".8"/></svg><svg data-name="Layer 1" viewBox="0 0 24 24" width="24" height="24" id="..|..|assets|icon|favouriteHover.svg" x="48" y="119.83" xmlns="http://www.w3.org/2000/svg"><path d="M10.7 12.2L10 10l1-3.9s.7-1.6 2-.2l1.4 4.5 4.8.2s1.4.7.7 1.7L16.1 15l-3.6-1s-1.6-1.1-1.8-1.8z" fill="#fff"/><path d="M10.2 8.6l1.3 3.5a2.45 2.45 0 002.2 1.4l4.2.1-2.1 1.4 1.8 5.1c.1.4-.8 1-1.2.8l-4.2-2.7-.3-.1-3.7 2.7a1.1 1.1 0 01-.8 0l-.8-.9 1.6-4.6-4.5-3.7 1-1.1h3.7s1.1.1 1.1 0 .7-1.9.7-1.9z" fill="#f4dfd3"/><path d="M11 6.2l-1.2 4.2c0 .1-.1.2-.3.2H5a1 1 0 00-.6 1.9L8 15.1a.37.37 0 01.1.3l-1.4 4.1a1.05 1.05 0 001.6 1.2l3.6-2.6a.19.19 0 01.3 0l3.5 2.6a1 1 0 001.6-1.2L16 15.4a.37.37 0 01.1-.3l3.5-2.5a1.05 1.05 0 00-.6-1.9h-4.4c-.1 0-.2-.1-.3-.2L13 6.2a1 1 0 00-2 0z" fill="none" stroke="#000" stroke-miterlimit="10" stroke-width=".8"/></svg><svg version="1.1" id="..|..|assets|icon|feature-request-accepted.svg" x="72" y="119.83" viewBox="0 0 24 24" xml:space="preserve" width="24" height="24" xmlns="http://www.w3.org/2000/svg"><style>.bbst0{opacity:0}.bbst1{fill:#fff}.bbst2{fill:#0ae013}</style><g class="bbst0"><path class="bbst1" d="M23 1v22H1V1h22m1-1H0v24h24V0z"/></g><path d="M11.7 5C9.5 5 7.8 6.8 7.8 8.9c0 1.5.9 2.8 2.1 3.4.5.3 1.1.4 1.8.4.6 0 1.2-.2 1.8-.4 1.2-.6 2.1-1.9 2.1-3.4 0-2.1-1.8-3.9-3.9-3.9zm0 7.1c-1.8 0-3.2-1.4-3.2-3.2s1.4-3.2 3.2-3.2 3.2 1.4 3.2 3.2-1.5 3.2-3.2 3.2z"/><path d="M16.6 14.4l-.4.5c.7.9 1.2 2 1.3 3.3H5.8c.1-2 1.3-3.9 3.1-4.8H9c.1-.1.2-.1.2-.1.7-.4 1.6-.5 2.5-.5 1 0 1.9.3 2.7.7l.4-.5c-.4-.3-.9-.4-1.4-.6s-1.1-.3-1.8-.3c-.6 0-1.2.1-1.8.3-2.7.8-4.8 3.3-4.8 6.3v.3h13.1v-.4c.1-1.6-.5-3.1-1.5-4.2zm-.4-.5c-.2-.2-.4-.4-.7-.5l-.5.5c.3.2.4.4.7.5l.5-.5z"/><path class="bbst2" d="M17.4 12.3l-1.2 1.6-.4.5-2 2.6c-.3.4-.7.6-1.1.6h-.1c-.4 0-.8-.2-1.1-.5l-2.1-2.3c-.2-.2-.2-.4 0-.6-.1-.2 0-.2.1-.2s.3.1.4.2l2.1 2.3c.2.2.3.2.4.2.2 0 .4-.1.5-.3l2-2.6.4-.5 1.2-1.6c.1-.1.2-.2.4-.2.1 0 .2 0 .3.1.3.2.4.5.2.7z"/></svg><svg version="1.1" id="..|..|assets|icon|feature-request.svg" x="96" y="119.83" viewBox="0 0 24 24" xml:space="preserve" width="24" height="24" xmlns="http://www.w3.org/2000/svg"><style>.bcst0{opacity:0}.bcst1{fill:#fff}.bcst2{fill:none;stroke:#000;stroke-width:.8;stroke-miterlimit:10}</style><g class="bcst0"><path class="bcst1" d="M23 1v22H1V1h22m1-1H0v24h24V0z"/></g><circle class="bcst2" cx="13.9" cy="9.5" r="3.1"/><path class="bcst2" d="M8.7 17.3v1.3h10.2c0-3.1-1.6-4.7-6-4.7-3 0-4.4-2.4-4.4-5.4V6.4H6.2v2.1c0 2 .4 4.2 1.7 6.1.8 1.4.7 1.4.8 2.7z"/></svg><svg version="1.1" id="..|..|assets|icon|filter.svg" x="120" y="119.83" viewBox="0 0 24 24" xml:space="preserve" width="24" height="24" xmlns="http://www.w3.org/2000/svg"><style>.bdst0{opacity:0}.bdst1{fill:#fff}.bdst2{fill:#ededed}.bdst3{fill:none;stroke:#000;stroke-width:.8;stroke-miterlimit:10}</style><g class="bdst0"><path class="bdst1" d="M23 1v22H1V1h22m1-1H0v24h24V0z"/></g><path class="bdst1" d="M5.2 6.2h13.3l-4.9 4.9-.2 4.8-2.1 2.1v-6.7z"/><path class="bdst2" d="M6.9 7.9h7.4l-2.6 2.5.1 7.3-1.6 1.2v-8.1z"/><path class="bdst3" d="M13.8 15.8l-2.9 3c-.2.2-.5.1-.5-.2l-.1-7.4-4.7-4.7c-.2-.2 0-.5.2-.5h12.4c.2 0 .4.3.2.4l-4.6 4.7v4.7z"/></svg><svg data-name="Layer 1" viewBox="0 0 24 24" width="24" height="24" id="..|..|assets|icon|filterClicked.svg" x="145" xmlns="http://www.w3.org/2000/svg"><path d="M14 16.2l-3.3 3.4a.35.35 0 01-.6-.2L10 11 4.8 5.7a.3.3 0 01.2-.5h14a.3.3 0 01.2.5L14 11z" fill="#ffbc79" stroke="#000" stroke-miterlimit="10" stroke-width=".8"/></svg><svg version="1.1" id="..|..|assets|icon|filterHover.svg" x="145" y="24" viewBox="0 0 24 24" xml:space="preserve" width="24" height="24" xmlns="http://www.w3.org/2000/svg"><style>.bfst0{opacity:0}.bfst1{fill:#fff}.bfst2{fill:#f4dfd3}.bfst3{fill:none;stroke:#000;stroke-width:.8;stroke-miterlimit:10}</style><g class="bfst0"><path class="bfst1" d="M23 1v22H1V1h22m1-1H0v24h24V0z"/></g><path class="bfst1" d="M5.2 6.2h13.3l-4.9 4.9-.2 4.8-2.1 2.1v-6.7z"/><path class="bfst2" d="M6.9 7.9h7.4l-2.6 2.5.1 7.3-1.6 1.2v-8.1z"/><path class="bfst3" d="M13.8 15.8l-2.9 3c-.2.2-.5.1-.5-.2l-.1-7.4-4.7-4.7c-.2-.2 0-.5.2-.5h12.4c.2 0 .4.3.2.4l-4.6 4.7v4.7z"/></svg><svg data-name="Layer 1" viewBox="0 0 24 24" width="24" height="24" id="..|..|assets|icon|flag.svg" x="145" y="48" xmlns="http://www.w3.org/2000/svg"><path d="M7.6 6.8c.9.1 11.3.1 11.1.2l-3.8 3.6 4 3.9-3.9.2-3.3-3.2 2.5-2.3L7.4 9z" fill="#fff"/><path fill="#ededed" d="M7.4 9h9.4l-3.3 3 3 2.7H7.4V9z"/><path d="M18.8 14.8H7.4v-8h11.3c.1 0 .2.1.1.2l-3.7 3.8 3.7 3.8c.1 0 .1.2 0 .2z" fill="none" stroke="#000" stroke-miterlimit="10" stroke-width=".8"/><path fill="none" stroke="#000" stroke-linecap="round" stroke-miterlimit="10" stroke-width=".8" d="M5.3 6.8v15.4"/></svg><svg version="1.1" id="..|..|assets|icon|flagClicked.svg" x="145" y="72" viewBox="0 0 24 24" xml:space="preserve" width="24" height="24" xmlns="http://www.w3.org/2000/svg"><style>.bhst0{opacity:0}.bhst1{fill:#fff}.bhst2,.bhst3{fill:#fc738d;stroke:#000;stroke-width:.8;stroke-miterlimit:10}.bhst3{fill:none;stroke-linecap:round}</style><g class="bhst0"><path class="bhst1" d="M23 1v22H1V1h22m1-1H0v24h24V0z"/></g><path class="bhst2" d="M18.8 14.8H7.4v-8h11.3c.1 0 .2.1.1.2l-3.7 3.8 3.7 3.8c.1 0 .1.2 0 .2z"/><path class="bhst3" d="M5.3 6.8v15.4"/></svg><svg version="1.1" id="..|..|assets|icon|flagHover.svg" x="145" y="96" viewBox="0 0 24 24" xml:space="preserve" width="24" height="24" xmlns="http://www.w3.org/2000/svg"><style>.bist0{opacity:0}.bist1{fill:#fff}.bist2{fill:#ffd8d8}.bist3,.bist4{fill:none;stroke:#000;stroke-width:.8;stroke-miterlimit:10}.bist4{stroke-linecap:round}</style><g class="bist0"><path class="bist1" d="M23 1v22H1V1h22m1-1H0v24h24V0z"/></g><path class="bist1" d="M7.6 6.8c.9.1 11.3.1 11.1.2-.1.1-3.8 3.6-3.8 3.6l4 3.9-3.9.2-3.3-3.2 2.5-2.3L7.4 9l.2-2.2z"/><path class="bist2" d="M7.4 9h9.4l-3.3 3 3 2.7H7.4z"/><path class="bist3" d="M18.8 14.8H7.4v-8h11.3c.1 0 .2.1.1.2l-3.7 3.8 3.7 3.8c.1 0 .1.2 0 .2z"/><path class="bist4" d="M5.3 6.8v15.4"/></svg><svg data-name="Layer 1" viewBox="0 0 24 24" width="24" height="24" id="..|..|assets|icon|followTag.svg" y="143.82999999999998" xmlns="http://www.w3.org/2000/svg"><path fill="none" stroke="#000" stroke-linecap="round" stroke-miterlimit="10" stroke-width="1.2" d="M12 7.9v9.2M7.5 12.5h9"/></svg><svg data-name="Layer 1" viewBox="0 0 24 24" width="24" height="24" id="..|..|assets|icon|followTagOver.svg" x="24" y="143.82999999999998" xmlns="http://www.w3.org/2000/svg"><path fill="none" stroke="#fff" stroke-linecap="round" stroke-miterlimit="10" stroke-width="1.2" d="M12 7.9v9.2M7.5 12.5h9"/></svg><svg data-name="Layer 1" viewBox="0 0 24 24" width="24" height="24" id="..|..|assets|icon|followingTag.svg" x="48" y="143.82999999999998" xmlns="http://www.w3.org/2000/svg"><path d="M7.4 12.1l3.4 3.6a.85.85 0 001.3-.1l5-7.3" fill="none" stroke="#000" stroke-linecap="round" stroke-miterlimit="10" stroke-width="1.2"/></svg><svg data-name="Layer 1" viewBox="0 0 24 24" width="24" height="24" id="..|..|assets|icon|followingTagOver.svg" x="72" y="143.82999999999998" xmlns="http://www.w3.org/2000/svg"><path fill="none" stroke="#fff" stroke-linecap="round" stroke-miterlimit="10" stroke-width="1.2" d="M8.6 15.9l6.8-6.8M8.6 9.1l6.8 6.8"/></svg><svg version="1.1" id="..|..|assets|icon|info.svg" x="241" y="214.8" viewBox="0 0 22.2 23.1" xml:space="preserve" width="22.2" height="23.1" xmlns="http://www.w3.org/2000/svg"><style>.bnst0{fill:#ececec}.bnst1{fill:#454545}</style><path id="bnPath_1036" class="bnst0" d="M9.96 4.36s-7.21 2.38-5.88 8.59 8.71 5.57 8.71 5.57a7.395 7.395 0 003.14-7.15c-.45-5.08-5.97-7.01-5.97-7.01z"/><path id="bnPath_1037-2" class="bnst1" d="M11.1 19.03c-4.13 0-7.48-3.35-7.48-7.48s3.35-7.48 7.48-7.48c4.13 0 7.48 3.35 7.48 7.48a7.494 7.494 0 01-7.48 7.48zm0-14.38c-3.81 0-6.9 3.09-6.9 6.89 0 3.81 3.09 6.9 6.89 6.9 3.81 0 6.9-3.09 6.9-6.89 0-3.81-3.08-6.89-6.89-6.9z"/><path id="bnPath_1038-2" class="bnst1" d="M10 9.51h1.72v5.46h.58v.57H10v-.57h.58v-4.89H10v-.57z"/><circle id="bnEllipse_113" class="bnst1" cx="10.85" cy="8.17" r=".85"/></svg><svg version="1.1" id="..|..|assets|icon|issue-fixed.svg" x="120" y="143.82999999999998" viewBox="0 0 24 24" xml:space="preserve" width="24" height="24" xmlns="http://www.w3.org/2000/svg"><style>.bost0{opacity:0}.bost1{fill:#fff}.bost2,.bost3{fill:none;stroke:#000;stroke-width:.8;stroke-linecap:round;stroke-miterlimit:10}.bost3{stroke:#009245;stroke-linejoin:round}</style><g class="bost0"><path class="bost1" d="M23 1v22H1V1h22m1-1H0v24h24V0z"/></g><path class="bost2" d="M6.2 9.1l2 1.3M5.1 14.1h2.4M6.6 19.1l1.7-1.5M17.8 9.3l-2 1.2M18.9 14.3h-2.3M17.4 19.2l-1.6-1.5M14.8 9.5c.2-.4.3-1 .3-1.4C15.1 6.4 13.8 5 12 5c-1.7 0-3.1 1.3-3.1 3.1 0 .5.1 1 .3 1.4"/><path class="bost2" d="M12 19.4c-2.5 0-4.4-2-4.4-4.4v-2.1c0-2.4 2-4.4 4.4-4.4 2.5 0 4.4 2 4.4 4.4V15c.1 2.4-1.9 4.4-4.4 4.4z"/><path class="bost3" d="M9.2 14.9l2.5 2.3 3.1-5"/></svg><svg version="1.1" id="..|..|assets|icon|issue.svg" x="144" y="143.82999999999998" viewBox="0 0 24 24" xml:space="preserve" width="24" height="24" xmlns="http://www.w3.org/2000/svg"><style>.bpst0{opacity:0}.bpst1{fill:#fff}.bpst2,.bpst3{fill:none;stroke:#000;stroke-width:.8;stroke-linecap:round;stroke-miterlimit:10}.bpst3{stroke:#d4145a}</style><g class="bpst0"><path class="bpst1" d="M23 1v22H1V1h22m1-1H0v24h24V0z"/></g><path class="bpst2" d="M6.2 9.1l2 1.3M5.1 14.1h2.4M6.6 19.1l1.7-1.5M17.8 9.3l-2 1.2M18.9 14.3h-2.3M17.4 19.2l-1.6-1.5M14.8 9.5c.2-.4.3-1 .3-1.4C15.1 6.4 13.8 5 12 5c-1.7 0-3.1 1.3-3.1 3.1 0 .5.1 1 .3 1.4"/><path class="bpst2" d="M12 19.4c-2.5 0-4.4-2-4.4-4.4v-2.1c0-2.4 2-4.4 4.4-4.4 2.5 0 4.4 2 4.4 4.4V15c.1 2.4-1.9 4.4-4.4 4.4z"/><g><path class="bpst3" d="M12 11.2v4.6M12 17.4v.5"/></g></svg><svg version="1.1" id="..|..|assets|icon|like.svg" x="169" viewBox="0 0 24 24" xml:space="preserve" width="24" height="24" xmlns="http://www.w3.org/2000/svg"><style>.bqst0{fill:#fff}.bqst1{fill:#ededed}.bqst2{fill:#7e7e7e}</style><path class="bqst0" d="M11.3 6.1s.3-1.1.6.4-.3 2.8-.3 2.8-.5 2 1.3 2.8 2.9.5 2.9.5l-1.6 5.7.2 1.2.4.5.2.1s1.5-.4 1.3-1.6.7-1.2.7-1.2.5-1.1.1-1.7c-.4-.6 1.1-1.2 1.1-1.2l-.8-1.1.8-.7h1s.8-1.6 0-2c-.9-.5-3.2 0-3.2 0h-1.6l-1.2-.1.1-.5s1.1-3 1-3.7-.6-2.4-1.3-2.4-1.4.4-1.4.4l-.3 1.8z"/><path class="bqst1" d="M4.5 10.6h3.7l.2 1.7s2.3-1.3 3-6.7c0 0 1.1-1.2 1 .8s-.5 2.8-.5 2.8-.7 1.6 1.2 2.5c0 0 .4.3 3.1.2 0 0-.5 1-.1 1.6s-.2.8-.2.8-1.1.6-.1 1.7c0 0 .3.2-.1.3-.4.2-2 1.4-.5 3.1l.3.6s-4.9.4-6-.5-1.1-1.2-1.1-1.2v1.5l-4.1.1v-9.5l.2.2z"/><path class="bqst2" d="M19.6 12.9c.6-.5.6-1.4.4-2-.1-.4-.5-.8-1.5-.9-1.1-.1-2.1 0-3.2 0h-1.4c.7-1.2.8-2.9.5-4.4-.2-.7-.7-2.3-2.1-2-1 .1-1.1 1.4-1.2 1.8 0 .9-.1 1.5-.4 2.3-.4 1.6-1 3-1.8 4.2v-1c0-.3-.3-.6-.6-.6H4.5c-.4 0-.6.2-.6.6V20c0 .3.1.5.5.5h3.7c.4 0 .6-.3.6-.6v-.7c.5.5 1.1 1 1.3 1.1.1.1.2.1.3.1.4 0 1.8.1 3 .1.8 0 1.5 0 2.1-.1.7-.1 1-.5 1.2-.8.2-.4.1-1-.1-1.3v-.1s.1-.1.2-.1.1-.1.1-.1c.2-.1.6-.4.8-.8.1-.4.1-.7-.1-1-.1-.2-.1-.4-.1-.4l.4-.4.4-.4c.2-.3.3-.6.2-.9 0-.2-.1-.4-.3-.5-.1-.1-.1-.2-.2-.3h.4c.4-.1 1-.1 1.3-.4zM8 19.7H4.8v-8.6H8v8.6zm9.9-7.4c-.4.1-.7.2-.7.5-.1.4.1.8.4 1.2.1.1.1.2.1.2s0 .1-.1.1l-.3.3c-.1.1-.4.3-.5.5-.3.4-.1.8-.1 1.2.1.2.1.4.1.4-.1.1-.1.2-.4.4 0 0-.7.4-.8.8-.1.3 0 .6.1.9.1.1.1.3.1.5-.1.1-.1.2-.5.3-1.4.2-4.5 0-4.9 0-.2-.1-1.1-.8-1.6-1.5v-4.9c1.3-1.3 2.2-3.1 2.7-5.3.2-.9.4-1.6.4-2.5.1-.7.1-1 .4-1.1.6-.1.9.2 1.2 1.4s.1 2.6-.4 3.8c-.1.3-.1.6.1.9.1.3.5.4.8.4h4.5c.6 0 .7.2.7.4.1.3.1.8-.1 1-.1.1-.6.1-.6.1h-.6z"/></svg><svg version="1.1" id="..|..|assets|icon|likeClicked.svg" x="169" y="24" viewBox="0 0 24 24" xml:space="preserve" width="24" height="24" xmlns="http://www.w3.org/2000/svg"><style>.brst0{fill:#aeed8f}.brst1{fill:#7e7e7e}</style><path class="brst0" d="M4.4 10.6h3.8l.1 2s2.7-2.5 2.9-7c0 0 .1-2.6 1.8-1.6s.5 5.7.5 5.7-.3.8.4.6 4.7.1 4.7.1 1.9.5.6 2.2l-1.4.1s-.7.1 0 .6-.1 1.4-.1 1.4l-.5.5s-.4.2 0 .7-.1 1.1-.1 1.1l-.7.5s-.5.2-.2.6.1 1.1.1 1.1-.1.8-1.5.7-4.5 0-4.5 0l-1.9-1.6-.1 1.6H4.4v-9.3z"/><path class="brst1" d="M19.6 12.9c.6-.5.6-1.4.4-2-.1-.4-.5-.8-1.5-.9-1.1-.1-2.1 0-3.2 0h-1.4c.7-1.2.8-2.9.5-4.4-.2-.7-.7-2.3-2.1-2-1 .1-1.1 1.4-1.2 1.8 0 .9-.1 1.5-.4 2.3-.4 1.6-1 3-1.8 4.2v-1c0-.3-.3-.6-.6-.6H4.5c-.4 0-.6.2-.6.6V20c0 .3.1.5.5.5h3.7c.4 0 .6-.3.6-.6v-.7c.5.5 1.1 1 1.3 1.1.1.1.2.1.3.1.4 0 1.8.1 3 .1.8 0 1.5 0 2.1-.1.7-.1 1-.5 1.2-.8.2-.4.1-1-.1-1.3v-.1s.1-.1.2-.1.1-.1.1-.1c.2-.1.6-.4.8-.8.1-.4.1-.7-.1-1-.1-.2-.1-.4-.1-.4l.4-.4.4-.4c.2-.3.3-.6.2-.9 0-.2-.1-.4-.3-.5-.1-.1-.1-.2-.2-.3h.4c.4-.1 1-.1 1.3-.4zM8 19.7H4.8v-8.6H8v8.6zm9.9-7.4c-.4.1-.7.2-.7.5-.1.4.1.8.4 1.2.1.1.1.2.1.2s0 .1-.1.1l-.3.3c-.1.1-.4.3-.5.5-.3.4-.1.8-.1 1.2.1.2.1.4.1.4-.1.1-.1.2-.4.4 0 0-.7.4-.8.8-.1.3 0 .6.1.9.1.1.1.3.1.5-.1.1-.1.2-.5.3-1.4.2-4.5 0-4.9 0-.2-.1-1.1-.8-1.6-1.5v-4.9c1.3-1.3 2.2-3.1 2.7-5.3.2-.9.4-1.6.4-2.5.1-.7.1-1 .4-1.1.6-.1.9.2 1.2 1.4s.1 2.6-.4 3.8c-.1.3-.1.6.1.9.1.3.5.4.8.4h4.5c.6 0 .7.2.7.4.1.3.1.8-.1 1-.1.1-.6.1-.6.1h-.6z"/></svg><svg version="1.1" id="..|..|assets|icon|likeHover.svg" x="169" y="48" viewBox="0 0 24 24" xml:space="preserve" width="24" height="24" xmlns="http://www.w3.org/2000/svg"><style>.bsst0{fill:#fff}.bsst1{fill:#c3fce6}.bsst2{fill:#7e7e7e}</style><path class="bsst0" d="M11.3 6.1s.3-1.1.6.4-.3 2.8-.3 2.8-.5 2 1.3 2.8 2.9.5 2.9.5l-1.6 5.7.2 1.2.4.5.2.1s1.5-.4 1.3-1.6.7-1.2.7-1.2.5-1.1.1-1.7c-.4-.6 1.1-1.2 1.1-1.2l-.8-1.1.8-.7h1s.8-1.6 0-2c-.9-.5-3.2 0-3.2 0h-1.6l-1.2-.1.1-.5s1.1-3 1-3.7-.6-2.4-1.3-2.4-1.4.4-1.4.4l-.3 1.8z"/><path class="bsst1" d="M4.5 10.6h3.7l.2 1.7s2.3-1.3 3-6.7c0 0 1.1-1.2 1 .8s-.5 2.8-.5 2.8-.7 1.6 1.2 2.5c0 0 .4.3 3.1.2 0 0-.5 1-.1 1.6s-.2.8-.2.8-1.1.6-.1 1.7c0 0 .3.2-.1.3-.4.2-2 1.4-.5 3.1l.3.6s-4.9.4-6-.5-1.1-1.2-1.1-1.2v1.5l-4.1.1v-9.5l.2.2z"/><path class="bsst2" d="M19.6 12.9c.6-.5.6-1.4.4-2-.1-.4-.5-.8-1.5-.9-1.1-.1-2.1 0-3.2 0h-1.4c.7-1.2.8-2.9.5-4.4-.2-.7-.7-2.3-2.1-2-1 .1-1.1 1.4-1.2 1.8 0 .9-.1 1.5-.4 2.3-.4 1.6-1 3-1.8 4.2v-1c0-.3-.3-.6-.6-.6H4.5c-.4 0-.6.2-.6.6V20c0 .3.1.5.5.5h3.7c.4 0 .6-.3.6-.6v-.7c.5.5 1.1 1 1.3 1.1.1.1.2.1.3.1.4 0 1.8.1 3 .1.8 0 1.5 0 2.1-.1.7-.1 1-.5 1.2-.8.2-.4.1-1-.1-1.3v-.1s.1-.1.2-.1.1-.1.1-.1c.2-.1.6-.4.8-.8.1-.4.1-.7-.1-1-.1-.2-.1-.4-.1-.4l.4-.4.4-.4c.2-.3.3-.6.2-.9 0-.2-.1-.4-.3-.5-.1-.1-.1-.2-.2-.3h.4c.4-.1 1-.1 1.3-.4zM8 19.7H4.8v-8.6H8v8.6zm9.9-7.4c-.4.1-.7.2-.7.5-.1.4.1.8.4 1.2.1.1.1.2.1.2s0 .1-.1.1l-.3.3c-.1.1-.4.3-.5.5-.3.4-.1.8-.1 1.2.1.2.1.4.1.4-.1.1-.1.2-.4.4 0 0-.7.4-.8.8-.1.3 0 .6.1.9.1.1.1.3.1.5-.1.1-.1.2-.5.3-1.4.2-4.5 0-4.9 0-.2-.1-1.1-.8-1.6-1.5v-4.9c1.3-1.3 2.2-3.1 2.7-5.3.2-.9.4-1.6.4-2.5.1-.7.1-1 .4-1.1.6-.1.9.2 1.2 1.4s.1 2.6-.4 3.8c-.1.3-.1.6.1.9.1.3.5.4.8.4h4.5c.6 0 .7.2.7.4.1.3.1.8-.1 1-.1.1-.6.1-.6.1h-.6z"/></svg><svg data-name="Layer 1" viewBox="0 0 24 24" width="24" height="24" id="..|..|assets|icon|link.svg" x="169" y="72" xmlns="http://www.w3.org/2000/svg"><path d="M13 8.5a3.36 3.36 0 013.4 3.5l1.8-1.7s1-2-.3-3.2a3.18 3.18 0 00-3.1-.5z" fill="#fff"/><path d="M12.5 8.6s3.9 0 3.8 4.4l2.1-2.2s1.2-2.5-.4-4a3.4 3.4 0 00-3.5-.7z" fill="#fff"/><path d="M4.3 17.2c0 .1-1 4.5 3.4 3.9l9.1-8.7s1.2-4.9-3.9-3.9z" fill="#ededed"/><path d="M12.5 16.5l-3.8 3.8a2.72 2.72 0 01-3.9 0h0a2.72 2.72 0 010-3.9l3.8-3.8a2.72 2.72 0 013.9 0h0" fill="none" stroke="#000" stroke-linecap="round" stroke-miterlimit="10" stroke-width=".8"/><path d="M10.5 10.7l3.8-3.8a2.72 2.72 0 013.9 0h0a2.72 2.72 0 010 3.9l-3.8 3.8a2.72 2.72 0 01-3.9 0h0" fill="none" stroke="#000" stroke-linecap="round" stroke-miterlimit="10" stroke-width=".8"/></svg><svg data-name="Layer 1" viewBox="0 0 24 24" width="24" height="24" id="..|..|assets|icon|linkClicked.svg" x="169" y="96" xmlns="http://www.w3.org/2000/svg"><path d="M4.8 20.4a2.84 2.84 0 010-4L14.2 7a2.84 2.84 0 014 0 2.84 2.84 0 010 4l-9.4 9.4a2.84 2.84 0 01-4 0z" fill="#fc95ff"/><path d="M12.5 16.5l-3.8 3.8a2.72 2.72 0 01-3.9 0h0a2.72 2.72 0 010-3.9l3.8-3.8a2.72 2.72 0 013.9 0h0" fill="none" stroke="#000" stroke-linecap="round" stroke-miterlimit="10" stroke-width=".8"/><path d="M10.5 10.7l3.8-3.8a2.72 2.72 0 013.9 0h0a2.72 2.72 0 010 3.9l-3.8 3.8a2.72 2.72 0 01-3.9 0h0" fill="none" stroke="#000" stroke-linecap="round" stroke-miterlimit="10" stroke-width=".8"/></svg><svg data-name="Layer 1" viewBox="0 0 24 24" width="24" height="24" id="..|..|assets|icon|linkHover.svg" x="169" y="120" xmlns="http://www.w3.org/2000/svg"><path d="M13 8.5a3.36 3.36 0 013.4 3.5l1.8-1.7s1-2-.3-3.2a3.18 3.18 0 00-3.1-.5z" fill="#fff"/><path d="M12.5 8.6s3.9 0 3.8 4.4l2.1-2.2s1.2-2.5-.4-4a3.4 3.4 0 00-3.5-.7z" fill="#fff"/><path d="M4.3 17.2c0 .1-1 4.5 3.4 3.9l9.1-8.7s1.2-4.9-3.9-3.9z" fill="#fed6ff"/><path d="M12.5 16.5l-3.8 3.8a2.72 2.72 0 01-3.9 0h0a2.72 2.72 0 010-3.9l3.8-3.8a2.72 2.72 0 013.9 0h0" fill="none" stroke="#000" stroke-linecap="round" stroke-miterlimit="10" stroke-width=".8"/><path d="M10.5 10.7l3.8-3.8a2.72 2.72 0 013.9 0h0a2.72 2.72 0 010 3.9l-3.8 3.8a2.72 2.72 0 01-3.9 0h0" fill="none" stroke="#000" stroke-linecap="round" stroke-miterlimit="10" stroke-width=".8"/></svg><svg version="1.1" id="..|..|assets|icon|markdown.svg" y="167.82999999999998" viewBox="0 0 24 24" xml:space="preserve" width="24" height="24" xmlns="http://www.w3.org/2000/svg"><style>.bwst0,.bwst1{fill:none}.bwst1{stroke:#969696;stroke-width:1.7;stroke-linecap:round;stroke-linejoin:round;stroke-miterlimit:10}.bwst2{fill:#969696}</style><path class="bwst0" d="M23 1v22H1V1h22m1-1H0v24h24V0z"/><path class="bwst1" d="M4.8 15.6V8.2l4.3 4.2 4.2-4.2v7.4M18.2 8.3v6"/><path class="bwst2" d="M15.3 13.6l3 3 3-3h-6"/></svg><svg version="1.1" id="..|..|assets|icon|next.svg" x="24" y="167.82999999999998" viewBox="0 0 24 24" xml:space="preserve" width="24" height="24" xmlns="http://www.w3.org/2000/svg"><style>.bxst0{fill:none}.bxst1{fill:#7e7e7e}</style><path class="bxst0" d="M578.6 1012.4h32v36.5h-32z"/><path class="bxst0" d="M578.6 1012.4h32v36.5h-32z"/><path class="bxst1" d="M16.5 12c0 .4-.2.8-.5 1.1l-7.7 7.8c-.1.1-.2.1-.3.1-.1 0-.2 0-.3-.1-.2-.2-.2-.5 0-.7l7.7-7.8c.1-.1.2-.2.2-.4s-.1-.3-.2-.4L7.6 3.8c-.2-.2-.2-.5 0-.7.2-.1.5-.1.7 0l7.8 7.8c.3.3.4.7.4 1.1z"/></svg><svg version="1.1" id="..|..|assets|icon|notification.svg" x="48" y="167.82999999999998" viewBox="0 0 24 24" xml:space="preserve" width="24" height="24" xmlns="http://www.w3.org/2000/svg"><style>.byst0{fill:none}.byst1{fill:#fff;stroke:#000;stroke-width:.8;stroke-miterlimit:10}.byst2{fill:#ededed}.byst3,.byst4{stroke:#000;stroke-miterlimit:10}.byst3{fill:#fff;stroke-width:.8;stroke-linecap:round}.byst4{fill:none;stroke-width:.8549}</style><path class="byst0" d="M23 1v22H1V1h22m1-1H0v24h24V0z"/><circle class="byst1" cx="12" cy="5.9" r="1.6"/><path class="byst2" d="M10.4 7.9s4-1.9 3.2 6.5l1.9 3.3-8.2.2s-.7-.4 0-1.5 1.1-2.2 1.1-2.2-.6-4.4.8-5.5 1.2-.8 1.2-.8z"/><path class="byst3" d="M14.1 19.6c0 1.1-.9 2.1-2.1 2.1s-2.1-.9-2.1-2.1"/><path class="byst4" d="M16.3 17.9H7.7c-.7 0-1.1-.8-.7-1.4l1.3-1.9v-3.4c0-2 1.6-3.6 3.6-3.6h.1c2 0 3.6 1.6 3.6 3.6v3.3l1.4 2c.4.6 0 1.4-.7 1.4z"/></svg><svg version="1.1" id="..|..|assets|icon|notificationClicked.svg" x="72" y="167.82999999999998" viewBox="0 0 24 24" xml:space="preserve" width="24" height="24" xmlns="http://www.w3.org/2000/svg"><style>.bzst0{opacity:0;fill:none}.bzst1{fill:#fff;stroke-width:.8}.bzst1,.bzst2,.bzst3{stroke:#000;stroke-miterlimit:10}.bzst2{fill:#fff;stroke-width:.8;stroke-linecap:round}.bzst3{fill:#ffbc79;stroke-width:.8549}</style><path class="bzst0" d="M23 1v22H1V1h22m1-1H0v24h24V0z"/><circle class="bzst1" cx="12" cy="5.9" r="1.6"/><path class="bzst2" d="M14.1 19.6c0 1.1-.9 2.1-2.1 2.1s-2.1-.9-2.1-2.1"/><path class="bzst3" d="M16.3 17.9H7.7c-.7 0-1.1-.8-.7-1.4l1.3-1.9v-3.4c0-2 1.6-3.6 3.6-3.6h.1c2 0 3.6 1.6 3.6 3.6v3.3l1.4 2c.4.6 0 1.4-.7 1.4z"/></svg><svg version="1.1" id="..|..|assets|icon|notificationHover.svg" x="73" viewBox="0 0 24 24" xml:space="preserve" width="24" height="24" xmlns="http://www.w3.org/2000/svg"><style>.cast0{fill:none}.cast1{fill:#fff;stroke:#000;stroke-width:.8;stroke-miterlimit:10}.cast2{fill:#f4dfd3}.cast3,.cast4{stroke:#000;stroke-miterlimit:10}.cast3{fill:#fff;stroke-width:.8;stroke-linecap:round}.cast4{fill:none;stroke-width:.8549}</style><path class="cast0" d="M23 1v22H1V1h22m1-1H0v24h24V0z"/><circle class="cast1" cx="12" cy="5.9" r="1.6"/><path class="cast2" d="M10.4 7.9s4-1.9 3.2 6.5l1.9 3.3-8.2.2s-.7-.4 0-1.5 1.1-2.2 1.1-2.2-.6-4.4.8-5.5 1.2-.8 1.2-.8z"/><path class="cast3" d="M14.1 19.6c0 1.1-.9 2.1-2.1 2.1s-2.1-.9-2.1-2.1"/><path class="cast4" d="M16.3 17.9H7.7c-.7 0-1.1-.8-.7-1.4l1.3-1.9v-3.4c0-2 1.6-3.6 3.6-3.6h.1c2 0 3.6 1.6 3.6 3.6v3.3l1.4 2c.4.6 0 1.4-.7 1.4z"/></svg><svg version="1.1" id="..|..|assets|icon|overflowMenu.svg" x="120" y="167.82999999999998" viewBox="0 0 24 24" xml:space="preserve" width="24" height="24" xmlns="http://www.w3.org/2000/svg"><style>.cbst0{opacity:0}.cbst1{fill:#fff}.cbst2{fill:none;stroke:#000;stroke-width:.8;stroke-miterlimit:10}</style><g class="cbst0"><path class="cbst1" d="M23 1v22H1V1h22m1-1H0v24h24V0z"/></g><circle class="cbst2" cx="12" cy="7.5" r="1.7"/><circle class="cbst2" cx="12" cy="13.4" r="1.7"/><circle class="cbst2" cx="12" cy="19.3" r="1.7"/></svg><svg version="1.1" id="..|..|assets|icon|palilogo.svg" x="145" y="120" viewBox="0 0 16 16" xml:space="preserve" width="16" height="16" xmlns="http://www.w3.org/2000/svg"><style>.ccst0{fill:#c1272d}.ccst1{fill:none}.ccst2{fill:#f93}.ccst3{opacity:.3;enable-background:new}.ccst3,.ccst4{fill:#093}.ccst5{fill:#36c}.ccst6{fill:url(#ccSVGID_1_)}.ccst7{fill:url(#ccSVGID_2_)}.ccst8{fill:url(#ccSVGID_3_)}.ccst9{fill:url(#ccSVGID_4_)}.ccst10{fill:url(#ccSVGID_5_)}.ccst11{fill:url(#ccSVGID_6_)}.ccst12{opacity:.3;fill:url(#ccSVGID_7_);enable-background:new}.ccst13{fill:url(#ccSVGID_8_)}.ccst14{fill:url(#ccSVGID_9_)}.ccst15{fill:url(#ccSVGID_10_)}.ccst16{fill:url(#ccSVGID_11_)}.ccst17{fill:url(#ccSVGID_12_)}.ccst18{fill:url(#ccSVGID_13_)}.ccst19{fill:url(#ccSVGID_14_)}.ccst20{fill:url(#ccSVGID_15_)}.ccst21{opacity:.3;fill:url(#ccSVGID_16_);enable-background:new}.ccst22{fill:url(#ccSVGID_17_)}.ccst23{fill:url(#ccSVGID_18_)}</style><path class="ccst0" d="M6.1 1.8L7.8.1c.1-.1.3-.1.4 0l2 2c.1.1.1.3 0 .4L8.6 4.2 8 3.7l1.3-1.3v-.1L8.1 1.1H8L6.7 2.3v.1l-.6-.6z"/><path class="ccst1" d="M9.1 4.7l-.5-.5-.6-.5-1.3-1.3"/><path class="ccst0" d="M9.9 5.5l-.6.6-3.6-3.6c-.1-.1-.1-.3 0-.4l.4-.4 3.8 3.8z"/><path transform="rotate(-45.001 7.998 8.001)" class="ccst2" d="M7.6 5.7h.8v4.5h-.8z"/><path transform="rotate(-45.001 9.884 9.887)" class="ccst2" d="M7.6 9.5h4.5v.8H7.6z"/><path transform="rotate(-45.001 6.11 6.114)" class="ccst2" d="M3.8 5.7h4.5v.8H3.8z"/><path class="ccst1" d="M11.8 7.4"/><path class="ccst3" d="M10.7 5.9z"/><path class="ccst1" d="M10.7 5.9l-.2.2-.6.6-.2.2M11.8 7.4"/><path class="ccst1" d="M10.7 5.9l-.2.2-.6.6-.2.2"/><path class="ccst4" d="M14 5.9l-2-2c-.1-.1-.3-.1-.4 0L8 7.4l.6.6 3.1-3.1h.1L13 6.1v.1l-1.3 1.3.6.5L14 6.3c.1-.1.1-.3 0-.4z"/><path class="ccst1" d="M11.8 7.4"/><path class="ccst4" d="M13.7 9.3l-.6.6-3.2-3.2.6-.6z"/><path class="ccst5" d="M6.1 5.5l-.6.6-1.2-1.2h-.1L2.3 6.7 2 6.3c-.1-.1-.1-.3 0-.4l2-2c.1-.1.3-.1.4 0l1.7 1.6zM9.9 10.5l.6-.6 1.3 1.3h.1l1.8-1.8.3.3c.1.1.1.3 0 .4l-2 2c-.1.1-.3.1-.4 0l-1.7-1.6z"/><path class="ccst0" d="M9.9 14.2l-1.7 1.7c-.1.1-.3.1-.4 0l-2-2c-.1-.1-.1-.3 0-.4l1.7-1.7.5.5-1.3 1.3v.1l1.2 1.2H8l1.2-1.2v-.1l.7.6z"/><path class="ccst0" d="M6.1 10.5l.6-.6 3.6 3.6c.1.1.1.3 0 .4l-.4.4-3.8-3.8z"/><path class="ccst1" d="M4.2 8.6"/><path class="ccst3" d="M5.3 10.1z"/><path class="ccst1" d="M5.3 10.1l.2-.2.6-.6.2-.2M4.2 8.6"/><path class="ccst1" d="M5.3 10.1l.2-.2.6-.6.2-.2"/><path class="ccst4" d="M2 10.1l2 2c.1.1.3.1.4 0L8 8.6 7.4 8l-3.1 3.1h-.1L3 9.9v-.1l1.3-1.3-.6-.5L2 9.7c-.1.1-.1.3 0 .4z"/><path class="ccst1" d="M4.2 8.6"/><path class="ccst4" d="M2.3 6.7l.6-.6 3.2 3.2-.6.6z"/><linearGradient id="ccSVGID_1_" gradientUnits="userSpaceOnUse" x1="5025.774" y1="-2509.598" x2="5025.048" y2="-2508.884" gradientTransform="matrix(.9775 -.02252 .02252 -.9775 -4849.173 -2332.953)"><stop offset="0" stop-opacity="0"/><stop offset=".859" stop-opacity=".258"/><stop offset="1" stop-opacity=".3"/></linearGradient><path class="ccst6" d="M7.4 6.8l-.6.6-.7-.7.6-.6z"/><linearGradient id="ccSVGID_2_" gradientUnits="userSpaceOnUse" x1="4208.143" y1="-2237.209" x2="4207.417" y2="-2236.495" gradientTransform="matrix(-.9775 .02252 -.02252 .9775 4072.067 2101.104)"><stop offset="0" stop-opacity="0"/><stop offset=".859" stop-opacity=".258"/><stop offset="1" stop-opacity=".3"/></linearGradient><path class="ccst7" d="M8.6 9.2l.6-.6.7.7-.6.6z"/><linearGradient id="ccSVGID_3_" gradientUnits="userSpaceOnUse" x1="4705.468" y1="-2042.191" x2="4704.742" y2="-2041.477" gradientTransform="matrix(.02252 .9775 .9775 .02252 1901.162 -4544.71)"><stop offset="0" stop-opacity="0"/><stop offset=".859" stop-opacity=".258"/><stop offset="1" stop-opacity=".3"/></linearGradient><path class="ccst8" d="M11.1 9.3l-.6-.6.7-.7.6.6z"/><linearGradient id="ccSVGID_4_" gradientUnits="userSpaceOnUse" x1="4701.693" y1="-2045.966" x2="4700.967" y2="-2045.252" gradientTransform="matrix(.02252 .9775 .9775 .02252 1901.162 -4544.71)"><stop offset="0" stop-opacity="0"/><stop offset=".859" stop-opacity=".258"/><stop offset="1" stop-opacity=".3"/></linearGradient><path class="ccst9" d="M7.3 5.5l-.6-.6.7-.7.6.6z"/><linearGradient id="ccSVGID_5_" gradientUnits="userSpaceOnUse" x1="4471.836" y1="-2803.378" x2="4471.11" y2="-2802.664" gradientTransform="matrix(-.02252 -.9775 -.9775 -.02252 -2630.71 4318.969)"><stop offset="0" stop-opacity="0"/><stop offset=".859" stop-opacity=".258"/><stop offset="1" stop-opacity=".3"/></linearGradient><path class="ccst10" d="M8.7 10.5l.6.6-.7.7-.6-.6z"/><linearGradient id="ccSVGID_6_" gradientUnits="userSpaceOnUse" x1="4475.612" y1="-2799.603" x2="4474.886" y2="-2798.889" gradientTransform="matrix(-.02252 -.9775 -.9775 -.02252 -2630.71 4318.969)"><stop offset="0" stop-opacity="0"/><stop offset=".859" stop-opacity=".258"/><stop offset="1" stop-opacity=".3"/></linearGradient><path class="ccst11" d="M4.9 6.7l.6.6-.7.7-.6-.6z"/><linearGradient id="ccSVGID_7_" gradientUnits="userSpaceOnUse" x1="4142.316" y1="-2191.273" x2="4141.59" y2="-2190.56" gradientTransform="matrix(-.02098 -.9759 -.9759 -.02098 -2042.679 4003.623)"><stop offset="0" stop-opacity="0"/><stop offset=".859" stop-opacity=".258"/><stop offset="1" stop-opacity=".3"/></linearGradient><path class="ccst12" d="M8.7 6.7l.6.6-.7.7-.6-.6z"/><linearGradient id="ccSVGID_8_" gradientUnits="userSpaceOnUse" x1="4142.355" y1="-2194.854" x2="4141.629" y2="-2194.14" gradientTransform="matrix(-.02124 -.9762 -.9762 -.02124 -2041.98 4004.258)"><stop offset="0" stop-opacity="0"/><stop offset=".859" stop-opacity=".258"/><stop offset="1" stop-opacity=".3"/></linearGradient><path class="ccst13" d="M12.5 6.7l.5.6-.7.7-.5-.6z"/><linearGradient id="ccSVGID_9_" gradientUnits="userSpaceOnUse" x1="4682.106" y1="-2513.962" x2="4681.38" y2="-2513.249" gradientTransform="matrix(.9763 -.02139 .02139 -.9763 -4506.598 -2347.25)"><stop offset="0" stop-opacity="0"/><stop offset=".859" stop-opacity=".258"/><stop offset="1" stop-opacity=".3"/></linearGradient><path class="ccst14" d="M11.1 6.8l-.5.6-.7-.7.6-.6z"/><linearGradient id="ccSVGID_10_" gradientUnits="userSpaceOnUse" x1="4146.14" y1="-2191.069" x2="4145.414" y2="-2190.355" gradientTransform="matrix(-.02124 -.9762 -.9762 -.02124 -2041.98 4004.258)"><stop offset="0" stop-opacity="0"/><stop offset=".859" stop-opacity=".258"/><stop offset="1" stop-opacity=".3"/></linearGradient><path class="ccst15" d="M8.7 3l.6.5-.7.7-.6-.5z"/><linearGradient id="ccSVGID_11_" gradientUnits="userSpaceOnUse" x1="4621.824" y1="-2179.01" x2="4621.098" y2="-2178.296" gradientTransform="matrix(-.9762 .02124 -.02124 .9762 4474.54 2034.218)"><stop offset="0" stop-opacity="0"/><stop offset=".859" stop-opacity=".258"/><stop offset="1" stop-opacity=".3"/></linearGradient><path class="ccst16" d="M8.6 5.4l.6-.5.7.6-.6.6z"/><linearGradient id="ccSVGID_12_" gradientUnits="userSpaceOnUse" x1="3963.115" y1="-2080.001" x2="3962.389" y2="-2079.287" gradientTransform="matrix(-.976 .021 -.021 .976 3829.512 1952.037)"><stop offset="0" stop-opacity="0"/><stop offset=".859" stop-opacity=".258"/><stop offset="1" stop-opacity=".3"/></linearGradient><path class="ccst17" d="M4.8 5.4l.6-.5.7.6-.6.6z"/><linearGradient id="ccSVGID_13_" gradientUnits="userSpaceOnUse" x1="3067.872" y1="-2230.576" x2="3067.146" y2="-2229.862" gradientTransform="matrix(.976 -.02105 .02105 -.976 -2936.513 -2101.695)"><stop offset="0" stop-opacity="0"/><stop offset=".859" stop-opacity=".258"/><stop offset="1" stop-opacity=".3"/></linearGradient><path class="ccst18" d="M11.1 10.6l-.5.5-.7-.6.6-.6z"/><linearGradient id="ccSVGID_14_" gradientUnits="userSpaceOnUse" x1="4017.327" y1="-3150.165" x2="4016.601" y2="-3149.451" gradientTransform="matrix(.02124 .9762 .9762 .02124 2996.984 -3842.145)"><stop offset="0" stop-opacity="0"/><stop offset=".859" stop-opacity=".258"/><stop offset="1" stop-opacity=".3"/></linearGradient><path class="ccst19" d="M7.3 13l-.6-.5.7-.7.6.5z"/><linearGradient id="ccSVGID_15_" gradientUnits="userSpaceOnUse" x1="3656.212" y1="-2008.327" x2="3655.486" y2="-2007.613" gradientTransform="matrix(.9762 -.02124 .02124 -.9762 -3519.536 -1872.105)"><stop offset="0" stop-opacity="0"/><stop offset=".859" stop-opacity=".258"/><stop offset="1" stop-opacity=".3"/></linearGradient><path class="ccst20" d="M7.4 10.6l-.6.5-.7-.6.6-.6z"/><linearGradient id="ccSVGID_16_" gradientUnits="userSpaceOnUse" x1="4480.139" y1="-3272.901" x2="4479.413" y2="-3272.187" gradientTransform="matrix(.02098 .9759 .9759 .02098 3107.151 -4294.617)"><stop offset="0" stop-opacity="0"/><stop offset=".859" stop-opacity=".258"/><stop offset="1" stop-opacity=".3"/></linearGradient><path class="ccst21" d="M7.3 9.3l-.6-.6.7-.7.6.6z"/><linearGradient id="ccSVGID_17_" gradientUnits="userSpaceOnUse" x1="4480.358" y1="-3276.242" x2="4479.632" y2="-3275.528" gradientTransform="matrix(.02124 .9762 .9762 .02124 3106.453 -4295.252)"><stop offset="0" stop-opacity="0"/><stop offset=".859" stop-opacity=".258"/><stop offset="1" stop-opacity=".3"/></linearGradient><path class="ccst22" d="M3.5 9.3L3 8.7l.7-.7.5.6z"/><linearGradient id="ccSVGID_18_" gradientUnits="userSpaceOnUse" x1="5749.654" y1="-2222.9" x2="5748.928" y2="-2222.186" gradientTransform="matrix(-.9763 .02139 -.02139 .9763 5571.07 2056.256)"><stop offset="0" stop-opacity="0"/><stop offset=".859" stop-opacity=".258"/><stop offset="1" stop-opacity=".3"/></linearGradient><path class="ccst23" d="M4.9 9.2l.5-.6.7.7-.6.6z"/></svg><svg version="1.1" id="..|..|assets|icon|portal.svg" x="168" y="167.82999999999998" viewBox="0 0 24 24" xml:space="preserve" width="24" height="24" xmlns="http://www.w3.org/2000/svg"><style>.cdst0{opacity:0}.cdst1{fill:#fff}.cdst2,.cdst3{fill:none;stroke:#000;stroke-miterlimit:10}.cdst3{stroke-linecap:round}</style><g class="cdst0"><path class="cdst1" d="M23 1v22H1V1h22m1-1H0v24h24V0z"/></g><path class="cdst2" d="M17.6 15.1H5.8c-1 0-1.8-.8-1.8-1.8V7c0-1 .8-1.8 1.8-1.8h11.8c1 0 1.8.8 1.8 1.8v6.3c-.1 1-.9 1.8-1.8 1.8z"/><path class="cdst3" d="M5.6 18.7h12.2M9.7 17.8h4"/></svg><svg version="1.1" id="..|..|assets|icon|portalClicked.svg" x="193" viewBox="0 0 24 24" xml:space="preserve" width="24" height="24" xmlns="http://www.w3.org/2000/svg"><style>.cest0{opacity:0}.cest1{fill:#fff}.cest2,.cest3{fill:none;stroke:#2faff9;stroke-miterlimit:10}.cest3{stroke-linecap:round}</style><g class="cest0"><path class="cest1" d="M23 1v22H1V1h22m1-1H0v24h24V0z"/></g><path class="cest2" d="M17.6 15.1H5.8c-1 0-1.8-.8-1.8-1.8V7c0-1 .8-1.8 1.8-1.8h11.8c1 0 1.8.8 1.8 1.8v6.3c-.1 1-.9 1.8-1.8 1.8z"/><path class="cest3" d="M5.6 18.7h12.2M9.7 17.8h4"/></svg><svg version="1.1" id="..|..|assets|icon|portalSolutions.svg" x="193" y="24" viewBox="0 0 24 24" xml:space="preserve" width="24" height="24" xmlns="http://www.w3.org/2000/svg"><style>.cfst0{opacity:0}.cfst1{fill:#fff}.cfst2,.cfst3{fill:none;stroke:#599076;stroke-miterlimit:10}.cfst3{stroke-linecap:round}</style><g class="cfst0"><path class="cfst1" d="M23 1v22H1V1h22m1-1H0v24h24V0z"/></g><path class="cfst2" d="M17.6 15.1H5.8c-1 0-1.8-.8-1.8-1.8V7c0-1 .8-1.8 1.8-1.8h11.8c1 0 1.8.8 1.8 1.8v6.3c-.1 1-.9 1.8-1.8 1.8z"/><path class="cfst3" d="M5.6 18.7h12.2M9.7 17.8h4"/></svg><svg version="1.1" id="..|..|assets|icon|previous.svg" x="193" y="48" viewBox="0 0 24 24" xml:space="preserve" width="24" height="24" xmlns="http://www.w3.org/2000/svg"><style>.cgst0{fill:none}.cgst1{fill:#7e7e7e}</style><path class="cgst0" d="M578.6 1012.4h32v36.5h-32z"/><path class="cgst0" d="M578.6 1012.4h32v36.5h-32z"/><path class="cgst1" d="M7.8 10.9l7.8-7.8c.2-.1.5-.1.7 0 .2.2.2.5 0 .7l-7.8 7.8c-.1.1-.2.2-.2.4s.1.3.2.4l7.7 7.8c.2.2.2.5 0 .7-.1.1-.2.1-.3.1-.1 0-.2 0-.3-.1l-7.7-7.8c-.3-.3-.5-.7-.5-1.1.1-.4.2-.8.4-1.1z"/></svg><svg data-name="Layer 1" viewBox="0 0 24.03 24.03" width="24.03" height="24.03" id="..|..|assets|icon|protectQuestion.svg" y="47.8" xmlns="http://www.w3.org/2000/svg"><path fill="none" stroke="#000" stroke-miterlimit="10" stroke-width=".03" d="M.02.02h24v24h-24z"/><path d="M20 6.42v2.8a11.34 11.34 0 01-7.9 10.9A11.32 11.32 0 014 9.22v-2.8a16 16 0 008-2.3 17.74 17.74 0 008 2.3z" fill="#ededed"/><path d="M20 6.42v2.8a11.34 11.34 0 01-7.9 10.9H12v-16a17.74 17.74 0 008 2.3z" fill="#fff"/><path d="M12.12 20.62H12a11.62 11.62 0 01-6-4.2 12.11 12.11 0 01-2.4-7.1v-3.4H4a15.26 15.26 0 007.8-2.3l.2-.1.2.1a18.9 18.9 0 007.8 2.3h.4v3.2a11.64 11.64 0 01-8.2 11.3zm-7.7-13.8v2.5a11.13 11.13 0 002.2 6.6 11.58 11.58 0 005.4 3.9 10.82 10.82 0 007.5-10.5v-2.5A18 18 0 0112 4.52a16.25 16.25 0 01-7.58 2.3z" fill="#191919"/><path d="M12 15.62a.43.43 0 01-.4-.4 3.18 3.18 0 01.2-1.9 2.93 2.93 0 011.5-1.4 3.08 3.08 0 00.9-.7 2.41 2.41 0 000-3 2.91 2.91 0 00-3.1-.7 2.18 2.18 0 00-1.4 2.4.33.33 0 01-.12.45.22.22 0 01-.16 0 .34.34 0 01-.4-.1.22.22 0 010-.16 2.4 2.4 0 01.3-2 3.17 3.17 0 011.5-1.3 3.51 3.51 0 014 .9 3.06 3.06 0 01-.1 4.1 4.37 4.37 0 01-1.1.8 2.35 2.35 0 00-1.1 1.1 2.48 2.48 0 00-.1 1.5c0 .21-.1.41-.42.41z" fill="#191919"/><circle cx="11.92" cy="17.12" r=".4" fill="#191919"/></svg><svg data-name="Layer 1" viewBox="0 0 24.03 24.03" width="24.03" height="24.03" id="..|..|assets|icon|protectQuestionClicked.svg" x="24.03" y="47.8" xmlns="http://www.w3.org/2000/svg"><path fill="none" stroke="#000" stroke-miterlimit="10" stroke-width=".03" d="M.02.02h24v24h-24z"/><path d="M20 6.42v2.8a11.34 11.34 0 01-7.9 10.9A11.32 11.32 0 014 9.22v-2.8a16 16 0 008-2.3 17.74 17.74 0 008 2.3z" fill="#ffbc79"/><path d="M20 6.42v2.8a11.34 11.34 0 01-7.9 10.9H12v-16a17.74 17.74 0 008 2.3z" fill="#fcdfb0"/><path d="M12.12 20.62H12a11.62 11.62 0 01-6-4.2 12.11 12.11 0 01-2.4-7.1v-3.4H4a15.26 15.26 0 007.8-2.3l.2-.1.2.1a18.9 18.9 0 007.8 2.3h.4v3.2a11.64 11.64 0 01-8.2 11.3zm-7.7-13.8v2.5a11.13 11.13 0 002.2 6.6 11.58 11.58 0 005.4 3.9 10.82 10.82 0 007.5-10.5v-2.5A18 18 0 0112 4.52a16.25 16.25 0 01-7.58 2.3z" fill="#191919"/><path d="M12 15.62a.43.43 0 01-.4-.4 3.18 3.18 0 01.2-1.9 2.93 2.93 0 011.5-1.4 3.08 3.08 0 00.9-.7 2.41 2.41 0 000-3 2.91 2.91 0 00-3.1-.7 2.18 2.18 0 00-1.4 2.4.33.33 0 01-.12.45.22.22 0 01-.16 0 .34.34 0 01-.4-.1.22.22 0 010-.16 2.4 2.4 0 01.3-2 3.17 3.17 0 011.5-1.3 3.51 3.51 0 014 .9 3.06 3.06 0 01-.1 4.1 4.37 4.37 0 01-1.1.8 2.35 2.35 0 00-1.1 1.1 2.48 2.48 0 00-.1 1.5c0 .21-.1.41-.42.41z" fill="#191919"/><circle cx="11.92" cy="17.12" r=".4" fill="#191919"/></svg><svg data-name="Layer 1" viewBox="0 0 24.03 24.03" width="24.03" height="24.03" id="..|..|assets|icon|protectQuestionHover.svg" x="48.06" y="47.8" xmlns="http://www.w3.org/2000/svg"><path fill="none" stroke="#000" stroke-miterlimit="10" stroke-width=".03" d="M.02.02h24v24h-24z"/><path d="M20 6.42v2.8a11.34 11.34 0 01-7.9 10.9A11.32 11.32 0 014 9.22v-2.8a16 16 0 008-2.3 17.74 17.74 0 008 2.3z" fill="#f4dfd3"/><path d="M20 6.42v2.8a11.34 11.34 0 01-7.9 10.9H12v-16a17.74 17.74 0 008 2.3z" fill="#fff"/><path d="M12.12 20.62H12a11.62 11.62 0 01-6-4.2 12.11 12.11 0 01-2.4-7.1v-3.4H4a15.26 15.26 0 007.8-2.3l.2-.1.2.1a18.9 18.9 0 007.8 2.3h.4v3.2a11.64 11.64 0 01-8.2 11.3zm-7.7-13.8v2.5a11.13 11.13 0 002.2 6.6 11.58 11.58 0 005.4 3.9 10.82 10.82 0 007.5-10.5v-2.5A18 18 0 0112 4.52a16.25 16.25 0 01-7.58 2.3z" fill="#191919"/><path d="M12 15.62a.43.43 0 01-.4-.4 3.18 3.18 0 01.2-1.9 2.93 2.93 0 011.5-1.4 3.08 3.08 0 00.9-.7 2.41 2.41 0 000-3 2.91 2.91 0 00-3.1-.7 2.18 2.18 0 00-1.4 2.4.33.33 0 01-.12.45.22.22 0 01-.16 0 .34.34 0 01-.4-.1.22.22 0 010-.16 2.4 2.4 0 01.3-2 3.17 3.17 0 011.5-1.3 3.51 3.51 0 014 .9 3.06 3.06 0 01-.1 4.1 4.37 4.37 0 01-1.1.8 2.35 2.35 0 00-1.1 1.1 2.48 2.48 0 00-.1 1.5c0 .21-.1.41-.42.41z" fill="#191919"/><circle cx="11.92" cy="17.12" r=".4" fill="#191919"/></svg><svg data-name="Layer 1" viewBox="0 0 24 24" width="24" height="24" id="..|..|assets|icon|publish.svg" x="193" y="144" xmlns="http://www.w3.org/2000/svg"><path d="M7 14.4c-.5-.1-3.7-.9-2.5-3.5 1.3-2.8 3.2-1.2 3.2-1.2H8s-.6-2.2.5-2.9 4.6-.7 4.9 3.3a.69.69 0 001 .6c1.5-.8 4.1-.7 4.1 2.8 0 0 2.3 1.4-10.3 1.1z" fill="#ededed"/><path d="M14.8 8.4a3.47 3.47 0 00-3.5-3A3.59 3.59 0 007.7 9a1.27 1.27 0 00.1.6 1.2 1.2 0 00-.8-.2 2.5 2.5 0 000 5h9.3a3.2 3.2 0 000-6.4 2.82 2.82 0 00-1.5.4z" fill="none" stroke="#000" stroke-miterlimit="10" stroke-width=".8"/><path d="M11.7 20.7a.9.9 0 01-.9-.9v-5.1l-1 1a.75.75 0 01-1.2 0 .86.86 0 01-.3-.6.71.71 0 01.3-.6l2.1-2.1a1.28 1.28 0 011-.4 1.28 1.28 0 011 .4l2.1 2.1a.86.86 0 01.3.6.71.71 0 01-.3.6.86.86 0 01-.6.3.71.71 0 01-.6-.3l-.9-.9v5a1.06 1.06 0 01-1 .9z"/><path d="M11.6 12.4a1.08 1.08 0 01.7.3l2.1 2.1c.2.1.2.4 0 .6a.5.5 0 01-.6 0l-1.7-1.7v6.2a.4.4 0 11-.8 0v-6.3l-1.8 1.8a.5.5 0 01-.6 0 .37.37 0 010-.6l2.1-2.1a.86.86 0 01.6-.3m0-1a2 2 0 00-1.4.6l-2.1 2.1a1.16 1.16 0 00-.4 1 1.78 1.78 0 00.4 1 1.53 1.53 0 001 .4 1.28 1.28 0 001-.4l.1-.1v3.9a1.4 1.4 0 002.8 0v-3.8a1.45 1.45 0 002 0 1.16 1.16 0 00.4-1 1.53 1.53 0 00-.4-1L13 12a1.82 1.82 0 00-1.4-.6z" fill="#fff"/><path fill="none" d="M24 24l-24-.1V0l24 .1V24z"/></svg><svg data-name="Layer 1" viewBox="0 0 24 24" width="24" height="24" id="..|..|assets|icon|publishClicked.svg" y="191.82999999999998" xmlns="http://www.w3.org/2000/svg"><path d="M7 14.4c-.5-.1-3.3-1.2-2.5-3.5a2.37 2.37 0 013.2-1.2H8S7.2 7.9 9.4 6c.6-.3 4.9-1.7 5.2 2.3 0 .5.4.3.9.1 1.5-.8 6.1.8 3.1 5.1 0 0 .5 1.1-10.3 1.1z" fill="#79e0ff"/><path d="M14.8 8.4a3.47 3.47 0 00-3.5-3A3.59 3.59 0 007.7 9a1.27 1.27 0 00.1.6 1.2 1.2 0 00-.8-.2 2.5 2.5 0 000 5h9.3a3.2 3.2 0 000-6.4 2.82 2.82 0 00-1.5.4z" fill="none" stroke="#000" stroke-miterlimit="10" stroke-width=".8"/><path d="M11.7 20.7a.9.9 0 01-.9-.9v-5.1l-1 1a.75.75 0 01-1.2 0 .86.86 0 01-.3-.6.71.71 0 01.3-.6l2.1-2.1a1.28 1.28 0 011-.4 1.28 1.28 0 011 .4l2.1 2.1a.86.86 0 01.3.6.71.71 0 01-.3.6.86.86 0 01-.6.3.71.71 0 01-.6-.3l-.9-.9v5a1.06 1.06 0 01-1 .9z"/><path d="M11.6 12.4a1.08 1.08 0 01.7.3l2.1 2.1c.2.1.2.4 0 .6a.5.5 0 01-.6 0l-1.7-1.7v6.2a.4.4 0 11-.8 0v-6.3l-1.8 1.8a.5.5 0 01-.6 0 .37.37 0 010-.6l2.1-2.1a.86.86 0 01.6-.3m0-1a2 2 0 00-1.4.6l-2.1 2.1a1.16 1.16 0 00-.4 1 1.78 1.78 0 00.4 1 1.53 1.53 0 001 .4 1.28 1.28 0 001-.4l.1-.1v3.9a1.4 1.4 0 002.8 0v-3.8a1.45 1.45 0 002 0 1.16 1.16 0 00.4-1 1.53 1.53 0 00-.4-1L13 12a1.82 1.82 0 00-1.4-.6z" fill="#fff"/><path fill="none" d="M24 24l-24-.1V0l24 .1V24z"/></svg><svg data-name="Layer 1" viewBox="0 0 24 24" width="24" height="24" id="..|..|assets|icon|publishHover.svg" x="24" y="191.82999999999998" xmlns="http://www.w3.org/2000/svg"><path d="M7 14.4c-.5-.1-3.7-.9-2.5-3.5 1.3-2.8 3.2-1.2 3.2-1.2H8s-.6-2.2.5-2.9 4.6-.7 4.9 3.3a.69.69 0 001 .6c1.5-.8 4.1-.7 4.1 2.8 0 0 2.3 1.4-10.3 1.1z" fill="#d3efff"/><path d="M14.8 8.4a3.47 3.47 0 00-3.5-3A3.59 3.59 0 007.7 9a1.27 1.27 0 00.1.6 1.2 1.2 0 00-.8-.2 2.5 2.5 0 000 5h9.3a3.2 3.2 0 000-6.4 2.82 2.82 0 00-1.5.4z" fill="none" stroke="#000" stroke-miterlimit="10" stroke-width=".8"/><path d="M11.7 20.7a.9.9 0 01-.9-.9v-5.1l-1 1a.75.75 0 01-1.2 0 .86.86 0 01-.3-.6.71.71 0 01.3-.6l2.1-2.1a1.28 1.28 0 011-.4 1.28 1.28 0 011 .4l2.1 2.1a.86.86 0 01.3.6.71.71 0 01-.3.6.86.86 0 01-.6.3.71.71 0 01-.6-.3l-.9-.9v5a1.06 1.06 0 01-1 .9z"/><path d="M11.6 12.4a1.08 1.08 0 01.7.3l2.1 2.1c.2.1.2.4 0 .6a.5.5 0 01-.6 0l-1.7-1.7v6.2a.4.4 0 11-.8 0v-6.3l-1.8 1.8a.5.5 0 01-.6 0 .37.37 0 010-.6l2.1-2.1a.86.86 0 01.6-.3m0-1a2 2 0 00-1.4.6l-2.1 2.1a1.16 1.16 0 00-.4 1 1.78 1.78 0 00.4 1 1.53 1.53 0 001 .4 1.28 1.28 0 001-.4l.1-.1v3.9a1.4 1.4 0 002.8 0v-3.8a1.45 1.45 0 002 0 1.16 1.16 0 00.4-1 1.53 1.53 0 00-.4-1L13 12a1.82 1.82 0 00-1.4-.6z" fill="#fff"/><path fill="none" d="M24 24l-24-.1V0l24 .1V24z"/></svg><svg data-name="Layer 1" viewBox="0 0 36.5 23.9" width="36.5" height="23.9" id="..|..|assets|icon|remove.svg" xmlns="http://www.w3.org/2000/svg"><path fill="none" d="M0 19.6h1.1H0zM12.6 0h23.9v23.9H12.6z"/><path d="M19 9.1h8.3v8.7h-6.1a1.71 1.71 0 01-1.9-1.9c0-2.1-.3-6.8-.3-6.8z" fill="#ededed"/><path fill="none" stroke="#191919" stroke-linecap="round" stroke-miterlimit="10" stroke-width=".8" d="M18.6 4.9h11.9M28.2 18H21a1.69 1.69 0 01-1.7-1.7V6.8H30v9.4a1.86 1.86 0 01-1.8 1.8zM21.9 8.7v7.2M24.6 8.7v7.2M27.3 8.7v7.2"/></svg><svg data-name="Layer 1" viewBox="0 0 36.5 23.9" width="36.5" height="23.9" id="..|..|assets|icon|removeClicked.svg" x="36.5" xmlns="http://www.w3.org/2000/svg"><path fill="none" d="M0 19.6h1.1H0zM12.6 0h23.9v23.9H12.6z"/><path d="M19.1 6.8l10.5.2.2 10-.5.8h-7.5s-2.5.7-2.5-1.9-.2-9.1-.2-9.1z" fill="#fc738d"/><path fill="none" stroke="#191919" stroke-linecap="round" stroke-miterlimit="10" stroke-width=".8" d="M18.6 4.9h11.9M28.2 18H21a1.69 1.69 0 01-1.7-1.7V6.8H30v9.4a1.86 1.86 0 01-1.8 1.8zM21.9 8.7v7.2M24.6 8.7v7.2M27.3 8.7v7.2"/></svg><svg data-name="Layer 1" viewBox="0 0 36.5 23.9" width="36.5" height="23.9" id="..|..|assets|icon|removeHover.svg" y="23.9" xmlns="http://www.w3.org/2000/svg"><path fill="none" d="M0 19.6h1.1H0zM12.6 0h23.9v23.9H12.6z"/><path d="M21.8 17.8s-2.5.7-2.5-1.9v-7l8.3-.2.1 9.2" fill="#ffd8d8"/><path fill="none" stroke="#191919" stroke-linecap="round" stroke-miterlimit="10" stroke-width=".8" d="M18.6 4.9h11.9M28.2 18H21a1.69 1.69 0 01-1.7-1.7V6.8H30v9.4a1.86 1.86 0 01-1.8 1.8zM21.9 8.7v7.2M24.6 8.7v7.2M27.3 8.7v7.2"/></svg><svg data-name="Layer 1" viewBox="0 0 24 24" width="24" height="24" id="..|..|assets|icon|removeRequest.svg" x="120" y="191.82999999999998" xmlns="http://www.w3.org/2000/svg"><path d="M15.3 19.3H7.8a1.58 1.58 0 01-1.6-1.6V8.2H17v9.5a1.67 1.67 0 01-1.7 1.6z" fill="#ededed" stroke="#000" stroke-linecap="round" stroke-miterlimit="10" stroke-width=".896"/><path fill="none" stroke="#000" stroke-linecap="round" stroke-miterlimit="10" stroke-width=".98" d="M8.9 10.1v7.3M11.6 10.1v7.3M14.3 10.1v7.3M5.5 8.1h12.1M15.9.8l2.4 2.5-2.4 2.4M11.5 5.9s0-3 3.9-3"/></svg><svg data-name="Layer 1" viewBox="0 0 24 24" width="24" height="24" id="..|..|assets|icon|removed.svg" x="144" y="191.82999999999998" xmlns="http://www.w3.org/2000/svg"><path d="M16 19H8a1.69 1.69 0 01-1.7-1.7V7h11.5v10.2A1.79 1.79 0 0116 19z" fill="#ededed" stroke="#000" stroke-linecap="round" stroke-miterlimit="10" stroke-width=".96"/><path fill="none" stroke="#000" stroke-linecap="round" stroke-miterlimit="10" stroke-width="1.049" d="M5.5 5h13M9.1 9.1v7.8M12 9.1v7.8M15 9.1v7.8M5.5 7h13"/></svg><svg data-name="Layer 1" viewBox="0 0 24 24" width="24" height="24" id="..|..|assets|icon|reply.svg" x="168" y="191.82999999999998" xmlns="http://www.w3.org/2000/svg"><path d="M11.1 5.6L8.9 7.8v3.7s4.1-.2 5.8 1.9a18.18 18.18 0 012.4 3.7l1.3 2.4.8.7.2-2.1s-1.2-5.1-3.3-6.8a16 16 0 00-4.5-2.2z" fill="#fff"/><path d="M4.9 12.2l4.6-4.6v3.5s6.4 0 7.8 6.5a6.91 6.91 0 00-6-2.5v4.4l-6.5-6.6z" fill="#ededed"/><path d="M11.4 9.1v-3c0-.2-.3-.3-.5-.2l-6.2 6.2a.75.75 0 000 .9l6.2 6.2a.3.3 0 00.5-.2v-3.8c4-.2 6.1 2.5 7.1 4.6a.47.47 0 00.9-.2c-.5-8.6-5.5-10.2-8-10.5z" fill="none" stroke="#000" stroke-miterlimit="10" stroke-width=".8"/></svg><svg data-name="Layer 1" viewBox="0 0 24 24" width="24" height="24" id="..|..|assets|icon|replyClicked.svg" x="192" y="191.82999999999998" xmlns="http://www.w3.org/2000/svg"><path d="M11.4 9.1v-3c0-.2-.3-.3-.5-.2l-6.2 6.2a.75.75 0 000 .9l6.2 6.2a.3.3 0 00.5-.2v-3.8c4-.2 6.1 2.5 7.1 4.6a.47.47 0 00.9-.2c-.5-8.6-5.5-10.2-8-10.5z" fill="#ffbc79" stroke="#000" stroke-miterlimit="10" stroke-width=".8"/></svg><svg data-name="Layer 1" viewBox="0 0 24 24" width="24" height="24" id="..|..|assets|icon|replyHover.svg" x="217" xmlns="http://www.w3.org/2000/svg"><path d="M11.1 5.6L8.9 7.8v3.7s4.1-.2 5.8 1.9a18.18 18.18 0 012.4 3.7l1.3 2.4.8.7.2-2.1s-1.2-5.1-3.3-6.8a16 16 0 00-4.5-2.2z" fill="#fff"/><path d="M4.9 12.2l4.6-4.6v3.5s6.4 0 7.8 6.5a6.91 6.91 0 00-6-2.5v4.4l-6.5-6.6z" fill="#f4dfd3"/><path d="M11.4 9.1v-3c0-.2-.3-.3-.5-.2l-6.2 6.2a.75.75 0 000 .9l6.2 6.2a.3.3 0 00.5-.2v-3.8c4-.2 6.1 2.5 7.1 4.6a.47.47 0 00.9-.2c-.5-8.6-5.5-10.2-8-10.5z" fill="none" stroke="#000" stroke-miterlimit="10" stroke-width=".8"/></svg><svg data-name="Layer 1" viewBox="0 0 24 24" width="24" height="24" id="..|..|assets|icon|reputation.svg" x="217" y="24" xmlns="http://www.w3.org/2000/svg"><path d="M15.6 6.4H18s-.1 4.8-1.6 5.9-.9-.2-.9-.2l.1-5.7zM8.9 6.5H6.5s.1 4.7 1.6 5.8.9-.2.9-.2l-.1-5.6z" fill="#ededed"/><path d="M12.8 6.2s.2 6.6 0 7.7a8.55 8.55 0 01-.8 2.2 3 3 0 003.1-2.1c.9-2.4 0-7.7 0-7.7z" fill="#fff"/><path d="M13.5 6.5v6.6s.1 2.6-1.6 3.3-3.1-3.8-3.1-3.8L9 6.5z" fill="#ededed"/><path d="M12.2 16.4h0a3.33 3.33 0 01-3.3-3.3V6.4h6.5v6.8a3.1 3.1 0 01-3.2 3.2z" fill="none" stroke="#000" stroke-miterlimit="10" stroke-width=".8"/><path d="M15.4 13.1a5 5 0 002.4-4.4V6.4H6.5v2.4a5.35 5.35 0 002.4 4.4" fill="none" stroke="#000" stroke-miterlimit="10" stroke-width=".8"/><path fill="none" stroke="#000" stroke-linecap="round" stroke-miterlimit="10" stroke-width=".8" d="M9.6 18.3h5.1M8.4 20h7.5"/></svg><svg data-name="Layer 1" viewBox="0 0 24 24" width="24" height="24" id="..|..|assets|icon|reputationClicked.svg" x="217" y="48" xmlns="http://www.w3.org/2000/svg"><path d="M15.6 6.4l-.1 5.7s-.5 1.3.9.2S18 6.4 18 6.4z" fill="#ffbc79"/><path d="M15.4 6.5H6.5s.1 4.7 1.6 5.8a.1.1 0 01.1.1v.2s2.1 4.5 4.8 3.8a3.35 3.35 0 002.5-3.3V6.5z" fill="#ffbc79"/><path d="M12.2 16.4h0a3.33 3.33 0 01-3.3-3.3V6.4h6.5v6.8a3.1 3.1 0 01-3.2 3.2z" fill="none" stroke="#000" stroke-miterlimit="10" stroke-width=".8"/><path d="M15.4 13.1a5 5 0 002.4-4.4V6.4H6.5v2.4a5.35 5.35 0 002.4 4.4" fill="none" stroke="#000" stroke-miterlimit="10" stroke-width=".8"/><path fill="none" stroke="#000" stroke-linecap="round" stroke-miterlimit="10" stroke-width=".8" d="M9.6 18.3h5.1M8.4 20h7.5"/></svg><svg data-name="Layer 1" viewBox="0 0 24 24" width="24" height="24" id="..|..|assets|icon|reputationHover.svg" x="217" y="72" xmlns="http://www.w3.org/2000/svg"><path d="M15.6 6.4H18s-.1 4.8-1.6 5.9-.9-.2-.9-.2l.1-5.7z" fill="#ededed"/><path d="M8.9 6.5H6.5s.1 4.7 1.6 5.8.9-.2.9-.2l-.1-5.6z" fill="#f4dfd3"/><path d="M12.8 6.2s.2 6.6 0 7.7a8.55 8.55 0 01-.8 2.2 3 3 0 003.1-2.1c.9-2.4 0-7.7 0-7.7z" fill="#fff"/><path d="M13.5 6.5v6.6s.1 2.6-1.6 3.3-3.1-3.8-3.1-3.8L9 6.5z" fill="#f4dfd3"/><path d="M12.2 16.4h0a3.33 3.33 0 01-3.3-3.3V6.4h6.5v6.8a3.1 3.1 0 01-3.2 3.2z" fill="none" stroke="#000" stroke-miterlimit="10" stroke-width=".8"/><path d="M15.4 13.1a5 5 0 002.4-4.4V6.4H6.5v2.4a5.35 5.35 0 002.4 4.4" fill="none" stroke="#000" stroke-miterlimit="10" stroke-width=".8"/><path fill="none" stroke="#000" stroke-linecap="round" stroke-miterlimit="10" stroke-width=".8" d="M9.6 18.3h5.1M8.4 20h7.5"/></svg><svg version="1.1" id="..|..|assets|icon|review.svg" x="217" y="96" viewBox="0 0 24 24" xml:space="preserve" width="24" height="24" xmlns="http://www.w3.org/2000/svg"><style>.cyst0{opacity:0}.cyst1{fill:#fff}.cyst2{fill:none;stroke:#000;stroke-linecap:round;stroke-linejoin:round;stroke-miterlimit:10}</style><g class="cyst0"><path class="cyst1" d="M23 1v22H1V1h22m1-1H0v24h24V0z"/></g><path class="cyst2" d="M12 18.2H7.4c-.8 0-1.4-.6-1.4-1.4v-10c0-.8.6-1.4 1.4-1.4H16c.8 0 1.4.6 1.4 1.4v6.4M15 8H8.5M13.2 11H8.4M11 13.6H8.3"/><circle class="cyst2" cx="14.6" cy="15.5" r="2"/><path class="cyst2" d="M17.5 18.3L16 16.9"/></svg><svg version="1.1" id="..|..|assets|icon|reviewClicked.svg" x="217" y="120" viewBox="0 0 24 24" xml:space="preserve" width="24" height="24" xmlns="http://www.w3.org/2000/svg"><style>.czst0{opacity:0}.czst1{fill:#fff}.czst2{fill:none;stroke:#2faff9;stroke-linecap:round;stroke-linejoin:round;stroke-miterlimit:10}</style><g class="czst0"><path class="czst1" d="M23 1v22H1V1h22m1-1H0v24h24V0z"/></g><path class="czst2" d="M12 18.2H7.4c-.8 0-1.4-.6-1.4-1.4v-10c0-.8.6-1.4 1.4-1.4H16c.8 0 1.4.6 1.4 1.4v6.4M15 8H8.5M13.2 11H8.4M11 13.6H8.3"/><circle class="czst2" cx="14.6" cy="15.5" r="2"/><path class="czst2" d="M17.5 18.3L16 16.9"/></svg><svg version="1.1" id="..|..|assets|icon|reviewRejected.svg" x="217" y="144" viewBox="0 0 24 24" xml:space="preserve" width="24" height="24" xmlns="http://www.w3.org/2000/svg"><style>.dast0{opacity:0}.dast1{fill:#fff}.dast2{stroke-linecap:round}.dast2,.dast3,.dast4{fill:none;stroke:#000;stroke-miterlimit:10}.dast4{stroke-linecap:round;stroke-linejoin:round}</style><g class="dast0"><path class="dast1" d="M23 1v22H1V1h22m1-1H0v24h24V0z"/></g><path class="dast2" d="M11.2 18.3H6.4c-.6 0-1.1-.5-1.1-1.1V6.4c0-.6.5-1.1 1.1-1.1h7.1L17.1 9v1.2"/><path class="dast3" d="M13.4 5.3V9h3.5"/><path class="dast4" d="M11 10.2H7h4zM10.1 13.1h-3 3zM9.6 15.9H7h2.6z"/><circle class="dast3" cx="15.5" cy="15.1" r="3.2"/><path class="dast3" d="M13.7 17.7l3.6-5.1"/></svg><svg version="1.1" id="..|..|assets|icon|reviewRejectedClicked.svg" x="217" y="168" viewBox="0 0 24 24" xml:space="preserve" width="24" height="24" xmlns="http://www.w3.org/2000/svg"><style>.dbst0{opacity:0}.dbst1{fill:#fff}.dbst2{stroke-linecap:round}.dbst2,.dbst3,.dbst4{fill:none;stroke:#2faff9;stroke-miterlimit:10}.dbst4{stroke-linecap:round;stroke-linejoin:round}</style><g class="dbst0"><path class="dbst1" d="M23 1v22H1V1h22m1-1H0v24h24V0z"/></g><path class="dbst2" d="M11.2 18.3H6.4c-.6 0-1.1-.5-1.1-1.1V6.4c0-.6.5-1.1 1.1-1.1h7.1L17.1 9v1.2"/><path class="dbst3" d="M13.4 5.3V9h3.5"/><path class="dbst4" d="M11 10.2H7h4zM10.1 13.1h-3 3zM9.6 15.9H7h2.6z"/><circle class="dbst3" cx="15.5" cy="15.1" r="3.2"/><path class="dbst3" d="M13.7 17.7l3.6-5.1"/></svg><svg version="1.1" id="..|..|assets|icon|reviewRejectedSolutions.svg" y="215.82999999999998" viewBox="0 0 24 24" xml:space="preserve" width="24" height="24" xmlns="http://www.w3.org/2000/svg"><style>.dcst0{opacity:0}.dcst1{fill:#fff}.dcst2{stroke-linecap:round}.dcst2,.dcst3,.dcst4{fill:none;stroke:#599076;stroke-miterlimit:10}.dcst4{stroke-linecap:round;stroke-linejoin:round}</style><g class="dcst0"><path class="dcst1" d="M23 1v22H1V1h22m1-1H0v24h24V0z"/></g><path class="dcst2" d="M11.2 18.3H6.4c-.6 0-1.1-.5-1.1-1.1V6.4c0-.6.5-1.1 1.1-1.1h7.1L17.1 9v1.2"/><path class="dcst3" d="M13.4 5.3V9h3.5"/><path class="dcst4" d="M11 10.2H7h4zM10.1 13.1h-3 3zM9.6 15.9H7h2.6z"/><circle class="dcst3" cx="15.5" cy="15.1" r="3.2"/><path class="dcst3" d="M13.7 17.7l3.6-5.1"/></svg><svg version="1.1" id="..|..|assets|icon|reviewSolutions.svg" x="24" y="215.82999999999998" viewBox="0 0 24 24" xml:space="preserve" width="24" height="24" xmlns="http://www.w3.org/2000/svg"><style>.ddst0{opacity:0}.ddst1{fill:#fff}.ddst2{fill:none;stroke:#599076;stroke-linecap:round;stroke-linejoin:round;stroke-miterlimit:10}</style><g class="ddst0"><path class="ddst1" d="M23 1v22H1V1h22m1-1H0v24h24V0z"/></g><path class="ddst2" d="M12 18.2H7.4c-.8 0-1.4-.6-1.4-1.4v-10c0-.8.6-1.4 1.4-1.4H16c.8 0 1.4.6 1.4 1.4v6.4M15 8H8.5M13.2 11H8.4M11 13.6H8.3"/><circle class="ddst2" cx="14.6" cy="15.5" r="2"/><path class="ddst2" d="M17.5 18.3L16 16.9"/></svg><svg data-name="Layer 1" viewBox="0 0 24 24" width="24" height="24" id="..|..|assets|icon|search.svg" x="48" y="215.82999999999998" xmlns="http://www.w3.org/2000/svg"><circle cx="10.2" cy="11.2" r="5.8" fill="#fff"/><ellipse cx="9.31" cy="12.28" rx="4.6" ry="5.2" transform="rotate(-45.08 9.308 12.28)" fill="#ededed"/><path d="M19.4 20.8l-5.2-5.2c-.1-.1-.1-.1-.2 0a5.79 5.79 0 01-4.8 1.6 5.74 5.74 0 112-11.3 6 6 0 013.3 2 5.58 5.58 0 01.9 5.6" fill="none" stroke="#000" stroke-linecap="round" stroke-miterlimit="10" stroke-width=".8"/></svg><svg data-name="Layer 1" viewBox="0 0 24 24" width="24" height="24" id="..|..|assets|icon|searchClicked.svg" x="72" y="215.82999999999998" xmlns="http://www.w3.org/2000/svg"><circle cx="10.2" cy="11.2" r="5.8" fill="#fff"/><circle cx="10.1" cy="11.6" r="5.8" fill="#79e0ff"/><path d="M19.4 20.8l-5.2-5.2c-.1-.1-.1-.1-.2 0a5.79 5.79 0 01-4.8 1.6 5.74 5.74 0 112-11.3 6 6 0 013.3 2 5.58 5.58 0 01.9 5.6" fill="none" stroke="#000" stroke-linecap="round" stroke-miterlimit="10" stroke-width=".8"/></svg><svg data-name="Layer 1" viewBox="0 0 24 24" width="24" height="24" id="..|..|assets|icon|searchHover.svg" x="96" y="215.82999999999998" xmlns="http://www.w3.org/2000/svg"><circle cx="10.2" cy="11.2" r="5.8" fill="#fff"/><ellipse cx="9.31" cy="12.28" rx="4.6" ry="5.2" transform="rotate(-45.08 9.308 12.28)" fill="#d6f6ff"/><path d="M19.4 20.8l-5.2-5.2c-.1-.1-.1-.1-.2 0a5.79 5.79 0 01-4.8 1.6 5.74 5.74 0 112-11.3 6 6 0 013.3 2 5.58 5.58 0 01.9 5.6" fill="none" stroke="#000" stroke-linecap="round" stroke-miterlimit="10" stroke-width=".8"/></svg><svg version="1.1" id="..|..|assets|icon|send-hover.svg" x="120" y="215.82999999999998" viewBox="0 0 24 24" xml:space="preserve" width="24" height="24" xmlns="http://www.w3.org/2000/svg"><style>.dhst0{fill:none}.dhst1{fill:#7e7e7e}.dhst2{fill:#d6f6ff}</style><path class="dhst0" d="M578.6 1012.4h32v36.5h-32z"/><path class="dhst0" d="M578.6 1012.4h32v36.5h-32z"/><path class="dhst1" d="M20.6 11.4c-.1-.1-.1-.1-.2-.1l-16.1-8c-.3-.2-.8-.2-1 .1-.3.3-.3.7-.1 1.1l4.5 6.9.4.6-.4.6-4.5 7c-.2.4-.2.8.1 1.1.2.1.4.3.6.3.1 0 .3 0 .4-.1l16.1-8c.1 0 .2-.1.3-.2.1-.1.2-.3.2-.6s-.1-.5-.3-.7zM4.9 4.9L18 11.4H9.1L4.9 4.9zm0 14.3l4.3-6.6h9L4.9 19.2z"/><path class="dhst2" d="M18.1 12.6L4.9 19.2l4.3-6.6z"/></svg><svg data-name="Layer 1" viewBox="0 0 24 24" width="24" height="24" id="..|..|assets|icon|send.svg" x="144" y="215.82999999999998" xmlns="http://www.w3.org/2000/svg"><path fill="#fff" d="M5.4 6.1l4.2 6.6 9.4.5-.4-1.2L5.5 5.8l-.1.3z"/><path fill="#ededed" d="M9.5 13l9.6.3-.4.7-13.1 6.3-.5-.5 3.9-6 .5-.8z"/><path d="M5.1 19.8L9.5 13 5.1 6.1a.37.37 0 01.5-.5l14.1 7.1a.38.38 0 010 .6l-14.1 7a.37.37 0 01-.5-.5zM19.9 13h0z" fill="none" stroke="#000" stroke-miterlimit="10" stroke-width=".8"/></svg><svg data-name="Layer 1" viewBox="0 0 24 24" width="24" height="24" id="..|..|assets|icon|sendClicked.svg" x="168" y="215.82999999999998" xmlns="http://www.w3.org/2000/svg"><path fill="#79e0ff" d="M5.1 19.8L9.5 13 5.1 6.1l.5-.5 13.8 7v.7l-13.8 7-.5-.5z"/><path d="M5.1 19.8L9.5 13 5.1 6.1a.37.37 0 01.5-.5l14.1 7.1a.38.38 0 010 .6l-14.1 7a.37.37 0 01-.5-.5zM19.9 13h0z" fill="none" stroke="#000" stroke-miterlimit="10" stroke-width=".8"/></svg><svg data-name="Layer 1" viewBox="0 0 24 24" width="24" height="24" id="..|..|assets|icon|sendHover.svg" x="192" y="215.82999999999998" xmlns="http://www.w3.org/2000/svg"><path fill="#fff" d="M5.4 6.1l4.2 6.6 9.4.5-.4-1.2L5.5 5.8l-.1.3z"/><path fill="#d6f6ff" d="M9.5 13l9.6.3-.4.7-13.1 6.3-.5-.5 3.9-6 .5-.8z"/><path d="M5.1 19.8L9.5 13 5.1 6.1a.37.37 0 01.5-.5l14.1 7.1a.38.38 0 010 .6l-14.1 7a.37.37 0 01-.5-.5zM19.9 13h0z" fill="none" stroke="#000" stroke-miterlimit="10" stroke-width=".8"/></svg><svg version="1.1" id="..|..|assets|icon|solutions-logo.svg" x="241" y="191.70000000000002" viewBox="0 0 22.2 23.1" xml:space="preserve" width="22.2" height="23.1" xmlns="http://www.w3.org/2000/svg"><style>.dlst0{fill:#599076}</style><path class="dlst0" d="M21 11.7V8.1h-1.7c-.2-1-.6-1.9-1.1-2.7l1.2-1.2-2.6-2.6-1.2 1.2c-.8-.5-1.7-.9-2.7-1.1V0H9.3v1.7c-1 .3-1.9.6-2.7 1.2L5.4 1.6 2.8 4.2l1.3 1.3c-.5.8-.9 1.7-1.1 2.6H1.2v3.6H3c.2.9.6 1.8 1.1 2.6l-1.3 1.3 2.6 2.6 1.3-1.3c.3.2.6.4 1 .5V15C6 13.9 5 12 5 9.9c0-3.4 2.8-6.2 6.2-6.2s6.2 2.8 6.2 6.2c0 2-.9 3.8-2.4 4.9v2.6c.2-.1.4-.2.6-.4l1.2 1.2 2.6-2.6-1.2-1.2c.5-.8.9-1.7 1.1-2.7H21z"/><path class="dlst0" d="M15.1 9.9c0-2.3-1.9-4.1-4.1-4.1-.4 0-.9.1-1.3.2l3 3-2.6 2.6-3-3c-.1.3-.2.8-.2 1.3 0 1.5.8 2.9 2.1 3.6v9.6h4.8V13c.8-.8 1.3-1.9 1.3-3.1z"/></svg><svg data-name="Layer 1" viewBox="0 0 24 24" width="24" height="24" id="..|..|assets|icon|sort.svg" x="241" xmlns="http://www.w3.org/2000/svg"><path fill="#ededed" d="M17.3 19.5l-5.1-5.1h10.2l-5.1 5.1z"/><path d="M22.4 14.5L18 18.9a.85.85 0 01-1.3 0l-4.3-4.3M5.7 6.2h7.2M5.7 19.1h3.4M5.7 10.4h5.9M5.7 14.8h4.5M17.4 19V6.3" fill="none" stroke="#000" stroke-linecap="round" stroke-miterlimit="10" stroke-width=".8"/></svg><svg version="1.1" id="..|..|assets|icon|sortCicked.svg" x="241" y="24" viewBox="0 0 24 24" xml:space="preserve" width="24" height="24" xmlns="http://www.w3.org/2000/svg"><style>.dnst0{fill:#fff}.dnst1{fill:#fc95ff}.dnst2{fill:#7e7e7e}</style><path class="dnst0" d="M14.1 5.5c.3 0 5.8.1 5.8.1v6.2l2.9.2-5.9 6.1.1-9.5-2.8-.5-.1-2.6z"/><path class="dnst1" d="M18 7.6v9.5l-1 1.1-6.1-6.2H14l.1-4.4z"/><path class="dnst2" d="M11.5 6.2H.6c-.3 0-.6-.3-.6-.6S.3 5 .6 5h10.8c.3 0 .6.3.6.6s-.2.6-.5.6zM8.9 10.5H.6c-.3 0-.6-.3-.6-.6s.3-.6.6-.6h8.2c.3 0 .6.3.6.6s-.2.6-.5.6zM6.6 14.7h-6c-.3 0-.6-.3-.6-.6s.3-.6.6-.6h6c.3 0 .6.3.6.6s-.3.6-.6.6zM5.1 18.8H.6c-.3 0-.6-.3-.6-.6s.3-.6.6-.6h4.5c.3 0 .6.3.6.6s-.3.6-.6.6zM23.9 11.9c-.1-.2-.3-.4-.6-.4h-2.6V5.7c0-.4-.3-.7-.7-.7h-5.7c-.4 0-.7.3-.7.7v5.8H11c-.2 0-.5.1-.6.4-.2.2-.1.5.1.7l5.8 5.8c.2.2.5.3.8.3s.6-.1.9-.4l5.8-5.8c.1-.1.2-.3.1-.6zM17 17.6l-4.9-4.9 2.5-.1V6.1h4.8v6.5H22l-5 5z"/></svg><svg data-name="Layer 1" viewBox="0 0 24 24" width="24" height="24" id="..|..|assets|icon|sortClicked.svg" x="241" y="48" xmlns="http://www.w3.org/2000/svg"><path fill="#fc95ff" d="M17.3 19.5l-5.1-5.1h10.2l-5.1 5.1z"/><path d="M22.4 14.5L18 18.9a.85.85 0 01-1.3 0l-4.3-4.3M5.7 6.2h7.2M5.7 19.1h3.4M5.7 10.4h5.9M5.7 14.8h4.5M17.4 19V6.3" fill="none" stroke="#000" stroke-linecap="round" stroke-miterlimit="10" stroke-width=".8"/></svg><svg data-name="Layer 1" viewBox="0 0 24 24" width="24" height="24" id="..|..|assets|icon|sortHover.svg" x="241" y="72" xmlns="http://www.w3.org/2000/svg"><path fill="#fed6ff" d="M17.3 19.5l-5.1-5.1h10.2l-5.1 5.1z"/><path d="M22.4 14.5L18 18.9a.85.85 0 01-1.3 0l-4.3-4.3M5.7 6.2h7.2M5.7 19.1h3.4M5.7 10.4h5.9M5.7 14.8h4.5M17.4 19V6.3" fill="none" stroke="#000" stroke-linecap="round" stroke-miterlimit="10" stroke-width=".8"/></svg><svg data-name="Layer 1" viewBox="0 0 24 24" width="24" height="24" id="..|..|assets|icon|tickmark.svg" x="241" y="96" xmlns="http://www.w3.org/2000/svg"><path d="M9.4 18.9s-2.2-4.3-4.9-5l.5-1s4.5 1.5 5.7 2.9c1.3 1.2-1.3 3.1-1.3 3.1z" fill="#fff"/><path d="M9.1 18.3s5.6-9.7 11.1-11.2l.2.6s-6.6 6.8-9.3 12.5a1 1 0 01-1.5-.7z" fill="#ededed"/><path d="M13 12.7c1.7-1.7 4.2-4.7 7.2-5.5.4-.1.7.3.4.5A37.79 37.79 0 0011.4 20a.77.77 0 01-1.4 0 12.85 12.85 0 00-5.3-5.9c-.4-.2-.1-1.1.3-1.1a9.1 9.1 0 015.6 2.6 28.27 28.27 0 012.4-2.9" fill="none" stroke="#000" stroke-miterlimit="10" stroke-width=".8"/></svg><svg data-name="Layer 1" viewBox="0 0 24 24" width="24" height="24" id="..|..|assets|icon|tickmarkClicked.svg" x="216" y="215.82999999999998" xmlns="http://www.w3.org/2000/svg"><path d="M20.8 8a38.85 38.85 0 00-9.1 12.1 1.23 1.23 0 01-1.1.7h-.1a1.09 1.09 0 01-1-.7 12.23 12.23 0 00-5.1-5.7.78.78 0 01-.3-1 1 1 0 01.9-.8 9 9 0 015.5 2.4 25.31 25.31 0 012.2-2.6l.8-.8c1.6-1.7 3.9-4.1 6.6-4.8a1 1 0 011 .4.67.67 0 01-.3.8z" fill="#00b570"/></svg><svg data-name="Layer 1" viewBox="0 0 24 24" width="24" height="24" id="..|..|assets|icon|tickmarkHover.svg" x="144" y="167.82999999999998" xmlns="http://www.w3.org/2000/svg"><path d="M9.4 18.9s-2.2-4.3-4.9-5l.5-1s4.5 1.5 5.7 2.9c1.3 1.2-1.3 3.1-1.3 3.1z" fill="#fff"/><path d="M9.1 18.3s5.6-9.7 11.1-11.2l.2.6s-6.6 6.8-9.3 12.5a1 1 0 01-1.5-.7z" fill="#c3fce6"/><path d="M13 12.7c1.7-1.7 4.2-4.7 7.2-5.5.4-.1.7.3.4.5A37.79 37.79 0 0011.4 20a.77.77 0 01-1.4 0 12.85 12.85 0 00-5.3-5.9c-.4-.2-.1-1.1.3-1.1a9.1 9.1 0 015.6 2.6 28.27 28.27 0 012.4-2.9" fill="none" stroke="#000" stroke-miterlimit="10" stroke-width=".8"/></svg><svg data-name="Layer 1" viewBox="0 0 24 24" width="24" height="24" id="..|..|assets|icon|upvote.svg" x="96" y="143.82999999999998" xmlns="http://www.w3.org/2000/svg"><path fill="#ededed" d="M4.3 9.6h3.9V19H4.3z"/><path d="M11.2 5s.3-1.1.6.4a5 5 0 01-.3 2.8 2.44 2.44 0 001.3 2.8 4.71 4.71 0 002.9.5l-1.6 5.7.2 1.2.4.5.3.1s1.5-.4 1.3-1.6.7-1.2.7-1.2.5-1.1.1-1.7 1.1-1.2 1.1-1.2l-.8-1.1.8-.7h1s.8-1.6 0-2-3.2 0-3.2 0h-1.6l-1.2-.1-.1-.4a17.31 17.31 0 001-3.7c-.1-.7-.5-2.4-1.2-2.4a3.28 3.28 0 00-1.4.4z" fill="#fff"/><path d="M15.9 15.2c.2-.1-.1-.2-.1-.2a1.22 1.22 0 01.4-1.9s.3-.1 0-.6.1-1.6.1-1.6a19 19 0 01-3.1-.2A1.93 1.93 0 0112 9.2c-.2-.7 0-1 .2-1.8a5.16 5.16 0 00.3-2.4c0-1.1-.5-.8-.7-.7a5.85 5.85 0 01-.5 2.2 11.65 11.65 0 01-2.9 5.4v5.2a5.76 5.76 0 001.8 1.6 38.7 38.7 0 005.1.1 8.68 8.68 0 00-.6-1.6c-.5-1 .9-1.8 1.2-2z" fill="#ededed"/><path d="M19.5 11.8a1.87 1.87 0 00.4-2c-.1-.4-.5-.8-1.5-.9s-2.1 0-3.2 0h-1.4v-.1a6.55 6.55 0 00.5-4.4c-.2-.7-.7-2.3-2.1-2-1 .1-1.1 1.4-1.2 1.8a5.87 5.87 0 01-.4 2.3 13.33 13.33 0 01-1.8 4.2v-1a.65.65 0 00-.6-.6H4.5a.53.53 0 00-.6.6v9.2c0 .3.1.5.5.5h3.7a.58.58 0 00.6-.6v-.7a8.29 8.29 0 001.3 1.1.37.37 0 00.3.1c.4 0 1.8.1 3 .1a13.42 13.42 0 002.1-.1 1.61 1.61 0 001.2-.8 1.47 1.47 0 00-.1-1.3v-.1a.35.35 0 01.2-.1.1.1 0 00.1-.1 2 2 0 00.8-.8 1.15 1.15 0 00-.1-1 1 1 0 01-.1-.4l.4-.4.4-.4a1 1 0 00.2-.9.55.55 0 00-.3-.5c-.1-.1-.1-.2-.2-.3h.4c.4-.1.9-.1 1.2-.4zM7.9 18.5H4.7V9.9h3.2zm10-7.4c-.4.1-.7.2-.7.5a1.47 1.47 0 00.4 1.2.31.31 0 01.1.2.1.1 0 01-.1.1l-.3.3c-.1.1-.4.3-.5.5-.3.4-.1.8-.1 1.2a1 1 0 01.1.4 1.4 1.4 0 01-.4.4s-.7.4-.8.8a1.41 1.41 0 00.1.9.75.75 0 01.1.5.69.69 0 01-.5.3 39.12 39.12 0 01-4.9 0 6.62 6.62 0 01-1.6-1.5V12a10.7 10.7 0 002.7-5.3 10.86 10.86 0 00.4-2.5c.1-.7.1-1 .4-1.1.6-.1.9.2 1.2 1.4a6.26 6.26 0 01-.4 3.8 1 1 0 00.1.9c.1.3.5.4.8.4h4.5c.6 0 .7.2.7.4a1.15 1.15 0 01-.1 1c-.1.1-.6.1-.6.1z" fill="#191919"/></svg><svg data-name="Layer 1" viewBox="0 0 24 24" width="24" height="24" id="..|..|assets|icon|upvoteClicked.svg" x="97" y="48" xmlns="http://www.w3.org/2000/svg"><path d="M8.4 11.7a14.86 14.86 0 003.2-8.1s.5-1.6 1.7-.4.2 5.1.2 5.1-.3.6.2.9 4.6 0 4.6 0 2.3.7.7 2.3l-1.5.4s.1 1.4.5 1.4-1.1 1.2-1.1 1.2l.2 1.2-1.1 1.2.2 1.5s-5.2 1-6.1.4-1.6-1.3-1.6-1.3L8.2 19H4.3V9.6h3.9z" fill="#00b570"/><path d="M19.5 11.8a1.87 1.87 0 00.4-2c-.1-.4-.5-.8-1.5-.9s-2.1 0-3.2 0h-1.4v-.1a6.55 6.55 0 00.5-4.4c-.2-.7-.7-2.3-2.1-2-1 .1-1.1 1.4-1.2 1.8a5.87 5.87 0 01-.4 2.3 13.33 13.33 0 01-1.8 4.2v-1a.65.65 0 00-.6-.6H4.5a.53.53 0 00-.6.6v9.2c0 .3.1.5.5.5h3.7a.58.58 0 00.6-.6v-.7a8.29 8.29 0 001.3 1.1.37.37 0 00.3.1c.4 0 1.8.1 3 .1a13.42 13.42 0 002.1-.1 1.61 1.61 0 001.2-.8 1.47 1.47 0 00-.1-1.3v-.1a.35.35 0 01.2-.1.1.1 0 00.1-.1 2 2 0 00.8-.8 1.15 1.15 0 00-.1-1 1 1 0 01-.1-.4l.4-.4.4-.4a1 1 0 00.2-.9.55.55 0 00-.3-.5c-.1-.1-.1-.2-.2-.3h.4c.4-.1.9-.1 1.2-.4zM7.9 18.5H4.7V9.9h3.2zm10-7.4c-.4.1-.7.2-.7.5a1.47 1.47 0 00.4 1.2.31.31 0 01.1.2.1.1 0 01-.1.1l-.3.3c-.1.1-.4.3-.5.5-.3.4-.1.8-.1 1.2a1 1 0 01.1.4 1.4 1.4 0 01-.4.4s-.7.4-.8.8a1.41 1.41 0 00.1.9.75.75 0 01.1.5.69.69 0 01-.5.3 39.12 39.12 0 01-4.9 0 6.62 6.62 0 01-1.6-1.5V12a10.7 10.7 0 002.7-5.3 10.86 10.86 0 00.4-2.5c.1-.7.1-1 .4-1.1.6-.1.9.2 1.2 1.4a6.26 6.26 0 01-.4 3.8 1 1 0 00.1.9c.1.3.5.4.8.4h4.5c.6 0 .7.2.7.4a1.15 1.15 0 01-.1 1c-.1.1-.6.1-.6.1z" fill="#191919"/></svg><svg data-name="Layer 1" viewBox="0 0 24 24" width="24" height="24" id="..|..|assets|icon|upvoteHover.svg" x="97" y="24" xmlns="http://www.w3.org/2000/svg"><path fill="#c3fce6" d="M4.3 9.6h3.9V19H4.3z"/><path d="M11.2 5s.3-1.1.6.4a5 5 0 01-.3 2.8 2.44 2.44 0 001.3 2.8 4.71 4.71 0 002.9.5l-1.6 5.7.2 1.2.4.5.3.1s1.5-.4 1.3-1.6.7-1.2.7-1.2.5-1.1.1-1.7 1.1-1.2 1.1-1.2l-.8-1.1.8-.7h1s.8-1.6 0-2-3.2 0-3.2 0h-1.6l-1.2-.1-.1-.4a17.31 17.31 0 001-3.7c-.1-.7-.5-2.4-1.2-2.4a3.28 3.28 0 00-1.4.4z" fill="#fff"/><path d="M15.9 15.2c.2-.1-.1-.2-.1-.2a1.22 1.22 0 01.4-1.9s.3-.1 0-.6.1-1.6.1-1.6a19 19 0 01-3.1-.2A1.93 1.93 0 0112 9.2c-.2-.7 0-1 .2-1.8a5.16 5.16 0 00.3-2.4c0-1.1-.5-.8-.7-.7a5.85 5.85 0 01-.5 2.2 11.65 11.65 0 01-2.9 5.4v5.2a5.76 5.76 0 001.8 1.6 38.7 38.7 0 005.1.1 8.68 8.68 0 00-.6-1.6c-.5-1 .9-1.8 1.2-2z" fill="#c3fce6"/><path d="M19.5 11.8a1.87 1.87 0 00.4-2c-.1-.4-.5-.8-1.5-.9s-2.1 0-3.2 0h-1.4v-.1a6.55 6.55 0 00.5-4.4c-.2-.7-.7-2.3-2.1-2-1 .1-1.1 1.4-1.2 1.8a5.87 5.87 0 01-.4 2.3 13.33 13.33 0 01-1.8 4.2v-1a.65.65 0 00-.6-.6H4.5a.53.53 0 00-.6.6v9.2c0 .3.1.5.5.5h3.7a.58.58 0 00.6-.6v-.7a8.29 8.29 0 001.3 1.1.37.37 0 00.3.1c.4 0 1.8.1 3 .1a13.42 13.42 0 002.1-.1 1.61 1.61 0 001.2-.8 1.47 1.47 0 00-.1-1.3v-.1a.35.35 0 01.2-.1.1.1 0 00.1-.1 2 2 0 00.8-.8 1.15 1.15 0 00-.1-1 1 1 0 01-.1-.4l.4-.4.4-.4a1 1 0 00.2-.9.55.55 0 00-.3-.5c-.1-.1-.1-.2-.2-.3h.4c.4-.1.9-.1 1.2-.4zM7.9 18.5H4.7V9.9h3.2zm10-7.4c-.4.1-.7.2-.7.5a1.47 1.47 0 00.4 1.2.31.31 0 01.1.2.1.1 0 01-.1.1l-.3.3c-.1.1-.4.3-.5.5-.3.4-.1.8-.1 1.2a1 1 0 01.1.4 1.4 1.4 0 01-.4.4s-.7.4-.8.8a1.41 1.41 0 00.1.9.75.75 0 01.1.5.69.69 0 01-.5.3 39.12 39.12 0 01-4.9 0 6.62 6.62 0 01-1.6-1.5V12a10.7 10.7 0 002.7-5.3 10.86 10.86 0 00.4-2.5c.1-.7.1-1 .4-1.1.6-.1.9.2 1.2 1.4a6.26 6.26 0 01-.4 3.8 1 1 0 00.1.9c.1.3.5.4.8.4h4.5c.6 0 .7.2.7.4a1.15 1.15 0 01-.1 1c-.1.1-.6.1-.6.1z" fill="#191919"/></svg><svg version="1.1" id="..|..|assets|icon|userNotify.svg" x="97" viewBox="0 0 24 24" xml:space="preserve" width="24" height="24" xmlns="http://www.w3.org/2000/svg"><style>.dwst0{opacity:0}.dwst1{fill:#fff}</style><g class="dwst0"><path class="dwst1" d="M22.9 1v22H.9V1h22m1-1h-24v24h24V0z"/></g><path class="dwst1" d="M11.9 11.9v0z"/><path d="M14.7 11.8c.3-.2.4-.3.7-.6.9-.9 1.3-2.1 1.3-3.4 0-1.7-.9-3.3-2.2-4-.9-.5-1.7-.8-2.6-.8-2.7 0-4.8 2.2-4.8 4.9 0 1.6.8 3.1 2.1 4C5.6 13 3 16.3 3 20.3v.7h17.7v-.7c.2-4-2.4-7.4-6-8.5z"/></svg><svg data-name="Layer 1" viewBox="0 0 22.2 23.1" width="22.2" height="23.1" id="..|..|assets|icon|zask-logo-mobile.svg" x="217" y="192" xmlns="http://www.w3.org/2000/svg"><path fill="#fff" d="M8.5 22h2v1.1h-2zM15 15.2a6.19 6.19 0 01-1.7 1.1.35.35 0 00-.2.1 4.89 4.89 0 00-1.8 1.4 4.07 4.07 0 00-.8 2.4v1.3h-2v-.6a6.5 6.5 0 00-2.2-5A11 11 0 0011 8.3v7.1a.66.66 0 00-.4.5.5.5 0 10.5-.5V8.3a10.74 10.74 0 003.9 6.9zM11.6 22h2.1v1.1h-2.1z"/><path d="M15.3 16.4a7.14 7.14 0 00-1.7 4.5v.7h-2.1v-1.3a3.2 3.2 0 011.9-2.9.35.35 0 00.2-.1 4.61 4.61 0 001.7-.9z" fill="#fff"/><path d="M13.4 17.5a.35.35 0 00.2-.1.31.31 0 00-.2.1zm-7.2-3.45l-.9.7.9-.7zM17.8 11.1a7 7 0 01-2.3 5.1c-.1.1-.2.1-.2.2l.5-.5a5.55 5.55 0 01-.8-.6 5.59 5.59 0 001.8-4.1 5.7 5.7 0 00-5.7-5.7 5.61 5.61 0 00-5.7 5.6 5.47 5.47 0 00.8 2.95l-.9.7a6.3 6.3 0 01-1-3.6 6.75 6.75 0 1113.5 0zM3 7.05h-.2l-1.2-.7a.62.62 0 01-.2-.7c.2-.3.5-.4.7-.2l1.2.6c.3.2.4.5.2.7a.55.55 0 01-.5.3zM20.2 17.05a.37.37 0 01-.3-.1l-1.1-.7c-.3-.2-.4-.5-.2-.7s.5-.4.7-.2l1.1.7c.3.2.4.5.2.7 0 .15-.2.3-.4.3zM1.8 11.7H.5a.5.5 0 010-1h1.3a.5.5 0 110 1zM21.7 11.7h-1.3a.5.5 0 010-1h1.3a.5.5 0 010 1zM1.9 17.05a.55.55 0 01-.5-.3.43.43 0 01.2-.7l1.1-.7a.43.43 0 01.7.2.43.43 0 01-.2.7l-1.1.7a.35.35 0 01-.2.1zM19.1 7.05a.55.55 0 01-.5-.3.43.43 0 01.2-.7l1.1-.7a.43.43 0 01.7.2.43.43 0 01-.2.7l-1 .8zM15.7 3.6a.37.37 0 01-.3-.1c-.3-.2-.4-.5-.2-.7l.7-1.1c.2-.3.5-.4.7-.2s.4.5.2.7l-.7 1.1c0 .3-.2.3-.4.3zM11.1 2.4a.47.47 0 01-.5-.5V.5c-.1-.3.2-.5.5-.5a.47.47 0 01.5.5v1.3c0 .4-.2.6-.5.6zM6.4 3.6c-.2 0-.3 0-.4-.2l-.7-1.2a.62.62 0 01.2-.7.54.54 0 01.8.2L7 2.8a.67.67 0 01-.3.8z" fill="#fff"/></svg><svg data-name="Layer 1" viewBox="0 0 22.2 23.1" width="22.2" height="23.1" id="..|..|assets|icon|zask-logo-new.svg" x="193" y="168" xmlns="http://www.w3.org/2000/svg"><path fill="#2faff9" d="M8.5 22h2v1.1h-2zM15 15.2a6.12 6.12 0 01-1.7 1.1.35.35 0 00-.2.1 4.93 4.93 0 00-1.8 1.4 4.07 4.07 0 00-.8 2.4v1.3h-2v-.6a6.49 6.49 0 00-2.2-5A11 11 0 0011 8.3v7.1a.68.68 0 00-.4.5.5.5 0 10.5-.5V8.3a10.75 10.75 0 003.9 6.9zM11.6 22h2.1v1.1h-2.1z"/><path d="M15.3 16.4a7.15 7.15 0 00-1.7 4.5v.7h-2.1v-1.3a3.19 3.19 0 011.9-2.9.35.35 0 00.2-.1 4.65 4.65 0 001.7-.9z" fill="#2faff9"/><path d="M13.4 17.5a.35.35 0 00.2-.1.3.3 0 00-.2.1zM6.2 14l-.9.7zM17.8 11.1a7 7 0 01-2.3 5.1c-.1.1-.2.1-.2.2l.5-.5a6.68 6.68 0 01-.8-.6 5.55 5.55 0 001.8-4.1 5.7 5.7 0 00-5.7-5.7A5.61 5.61 0 005.4 11v.08A5.47 5.47 0 006.2 14l-.9.7a6.29 6.29 0 01-1-3.6 6.75 6.75 0 0113.5 0zM3 7h-.2l-1.2-.7a.63.63 0 01-.2-.7c.2-.3.5-.4.7-.2l1.2.6c.3.2.4.5.2.7A.56.56 0 013 7zM20.2 17a.37.37 0 01-.3-.1l-1.1-.7c-.3-.2-.4-.5-.2-.7s.5-.4.7-.2l1.1.7c.3.2.4.5.2.7 0 .2-.2.3-.4.3zM1.8 11.7H.5a.5.5 0 010-1h1.3a.5.5 0 010 1zM21.7 11.7h-1.3a.5.5 0 010-1h1.3a.5.5 0 010 1zM1.9 17a.56.56 0 01-.5-.3.45.45 0 010-.61.72.72 0 01.2-.09l1.1-.7a.45.45 0 01.61 0 .56.56 0 01.09.17.45.45 0 010 .61.56.56 0 01-.17.09l-1.1.7a.36.36 0 01-.23.13zM19.1 7a.56.56 0 01-.5-.3.45.45 0 010-.61.72.72 0 01.2-.09l1.1-.7a.45.45 0 01.61 0 .56.56 0 01.09.17.45.45 0 010 .61.56.56 0 01-.17.09l-1 .8zM15.7 3.6a.37.37 0 01-.3-.1c-.3-.2-.4-.5-.2-.7l.7-1.1c.2-.3.5-.4.7-.2s.4.5.2.7l-.7 1.1c0 .3-.2.3-.4.3zM11.1 2.4a.47.47 0 01-.5-.4V.5c-.1-.3.2-.5.5-.5a.47.47 0 01.5.44V1.8c0 .4-.2.6-.5.6zM6.4 3.6c-.2 0-.3 0-.4-.2l-.7-1.2a.63.63 0 01.2-.7.54.54 0 01.75.12v.08L7 2.8a.66.66 0 01-.3.8z" fill="#2faff9"/></svg><svg data-name="Layer 1" viewBox="0 0 22.2 23.1" width="22.2" height="23.1" id="..|..|assets|icon|zask-logo3.svg" x="169" y="144" xmlns="http://www.w3.org/2000/svg"><path fill="#2faff9" d="M8.5 22h2v1.1h-2zM15 15.2a6.19 6.19 0 01-1.7 1.1.35.35 0 00-.2.1 4.89 4.89 0 00-1.8 1.4 4.07 4.07 0 00-.8 2.4v1.3h-2v-.6a6.5 6.5 0 00-2.2-5A11 11 0 0011 8.3v7.1a.66.66 0 00-.4.5.5.5 0 10.5-.5V8.3a10.74 10.74 0 003.9 6.9zM11.6 22h2.1v1.1h-2.1z"/><path d="M15.3 16.4a7.14 7.14 0 00-1.7 4.5v.7h-2.1v-1.3a3.2 3.2 0 011.9-2.9.35.35 0 00.2-.1 4.61 4.61 0 001.7-.9z" fill="#2faff9"/><path d="M13.4 17.5a.35.35 0 00.2-.1.31.31 0 00-.2.1zM6.2 14l-.9.7.9-.7zM17.8 11.1a7 7 0 01-2.3 5.1c-.1.1-.2.1-.2.2l.5-.5a5.55 5.55 0 01-.8-.6 5.59 5.59 0 001.8-4.1 5.7 5.7 0 00-5.7-5.7 5.61 5.61 0 00-5.7 5.6 5.47 5.47 0 00.8 2.9l-.9.7a6.3 6.3 0 01-1-3.6 6.75 6.75 0 1113.5 0zM3 7h-.2l-1.2-.7a.62.62 0 01-.2-.7c.2-.3.5-.4.7-.2l1.2.6c.3.2.4.5.2.7A.55.55 0 013 7zM20.2 17a.37.37 0 01-.3-.1l-1.1-.7c-.3-.2-.4-.5-.2-.7s.5-.4.7-.2l1.1.7c.3.2.4.5.2.7 0 .2-.2.3-.4.3zM1.8 11.7H.5a.5.5 0 010-1h1.3a.5.5 0 010 1zM21.7 11.7h-1.3a.5.5 0 010-1h1.3a.5.5 0 010 1zM1.9 17a.55.55 0 01-.5-.3.43.43 0 01.2-.7l1.1-.7a.43.43 0 01.7.2.43.43 0 01-.2.7l-1.1.7a.35.35 0 01-.2.1zM19.1 7a.55.55 0 01-.5-.3.43.43 0 01.2-.7l1.1-.7a.43.43 0 01.7.2.43.43 0 01-.2.7l-1 .8zM15.7 3.6a.37.37 0 01-.3-.1c-.3-.2-.4-.5-.2-.7l.7-1.1c.2-.3.5-.4.7-.2s.4.5.2.7l-.7 1.1c0 .3-.2.3-.4.3zM11.1 2.4a.47.47 0 01-.5-.5V.5c-.1-.3.2-.5.5-.5a.47.47 0 01.5.5v1.3c0 .4-.2.6-.5.6zM6.4 3.6c-.2 0-.3 0-.4-.2l-.7-1.2a.62.62 0 01.2-.7.54.54 0 01.8.2L7 2.8a.67.67 0 01-.3.8z" fill="#2faff9"/></svg></svg>