<svg xmlns="http://www.w3.org/2000/svg" xmlns:xlink="http://www.w3.org/1999/xlink" viewBox="0 0 6135.1 7799.87"><defs><linearGradient id="c" x1="1685.8" y1="12743.8" x2="9294.97" y2="12743.8" xlink:href="#a"/><linearGradient id="b" x1="-10127.82" y1="-8162.42" x2="-7510.15" y2="-8162.42" gradientTransform="rotate(15.71 -21794.364 33653.51) scale(.68)" gradientUnits="userSpaceOnUse"><stop offset="0" stop-color="#33a3dc" stop-opacity="0"/><stop offset=".03" stop-color="#33a3dc" stop-opacity=".04"/><stop offset=".07" stop-color="#33a3dc" stop-opacity=".15"/><stop offset=".13" stop-color="#33a3dc" stop-opacity=".33"/><stop offset=".2" stop-color="#33a3dc" stop-opacity=".58"/><stop offset=".28" stop-color="#33a3dc" stop-opacity=".9"/><stop offset=".3" stop-color="#33a3dc"/><stop offset=".31" stop-color="#33a3dc" stop-opacity=".96"/><stop offset=".34" stop-color="#33a3dc" stop-opacity=".85"/><stop offset=".37" stop-color="#33a3dc" stop-opacity=".67"/><stop offset=".4" stop-color="#33a3dc" stop-opacity=".42"/><stop offset=".44" stop-color="#33a3dc" stop-opacity=".1"/><stop offset=".45" stop-color="#33a3dc" stop-opacity="0"/><stop offset="1" stop-color="#33a3dc" stop-opacity="0"/></linearGradient><linearGradient id="d" x1="2275.15" y1="13390.46" x2="9441.36" y2="13390.46" xlink:href="#a"/><linearGradient id="e" x1="1571.43" y1="12507.26" x2="9240.74" y2="12507.26" xlink:href="#a"/><linearGradient id="f" x1="4466.68" y1="9766.93" x2="7947.63" y2="9766.93" xlink:href="#a"/><linearGradient id="g" x1="1554.43" y1="11755.76" x2="9049.71" y2="11755.76" xlink:href="#a"/><linearGradient id="h" x1="1502.83" y1="12007.25" x2="9117.81" y2="12007.25" xlink:href="#a"/><linearGradient id="i" x1="1504.3" y1="12264.54" x2="9184.59" y2="12264.54" xlink:href="#a"/><linearGradient id="j" x1="6431.47" y1="14155.76" x2="9676.93" y2="14155.76" xlink:href="#a"/><linearGradient id="k" x1="5830.75" y1="14182.09" x2="9677.18" y2="14182.09" xlink:href="#a"/><linearGradient id="l" x1="5258.15" y1="14175.62" x2="9665.33" y2="14175.62" xlink:href="#a"/><linearGradient id="m" x1="4709.57" y1="14142.28" x2="9644.48" y2="14142.28" xlink:href="#a"/><linearGradient id="n" x1="8331.68" y1="14025.92" x2="9504.68" y2="14025.92" xlink:href="#a"/><linearGradient id="o" x1="1640.99" y1="11510.41" x2="8974.48" y2="11510.41" xlink:href="#a"/><linearGradient id="p" x1="5673.33" y1="9492.23" x2="7274.52" y2="9492.23" xlink:href="#a"/><linearGradient id="q" x1="7079.37" y1="14095.51" x2="9666.98" y2="14095.51" xlink:href="#a"/><linearGradient id="r" x1="7629.79" y1="14099.77" x2="9625.73" y2="14099.77" xlink:href="#a"/><linearGradient id="s" x1="2575.25" y1="13579.5" x2="9482.85" y2="13579.5" xlink:href="#a"/><linearGradient id="t" x1="3299.33" y1="13876.17" x2="9555.42" y2="13876.17" xlink:href="#a"/><linearGradient id="u" x1="1828.13" y1="12961.89" x2="9351.04" y2="12961.89" xlink:href="#a"/><linearGradient id="v" x1="1813.83" y1="11255.64" x2="8887.78" y2="11255.64" xlink:href="#a"/><linearGradient id="w" x1="3759.54" y1="13993.87" x2="9588.74" y2="13993.87" xlink:href="#a"/><linearGradient id="x" x1="4229.51" y1="14075.76" x2="9618.41" y2="14075.76" xlink:href="#a"/><linearGradient id="y" x1="2907.76" y1="13735.27" x2="9519.31" y2="13735.27" xlink:href="#a"/><linearGradient id="z" x1="2034.96" y1="13190.55" x2="9395.07" y2="13190.55" xlink:href="#a"/><linearGradient id="A" x1="3442.48" y1="10133.37" x2="8334.71" y2="10133.37" xlink:href="#a"/><linearGradient id="B" x1="2642.25" y1="10559.08" x2="8595.06" y2="10559.08" xlink:href="#a"/><linearGradient id="C" x1="2033.4" y1="11007.34" x2="8794.96" y2="11007.34" xlink:href="#a"/><linearGradient id="D" x1="2301.8" y1="10784.95" x2="8701.01" y2="10784.95" xlink:href="#a"/><linearGradient id="E" x1="3018.35" y1="10347.63" x2="8459.96" y2="10347.63" xlink:href="#a"/><linearGradient id="F" x1="3877.25" y1="9946.28" x2="8178.87" y2="9946.28" xlink:href="#a"/><linearGradient id="a" x1="5030.96" y1="9625.73" x2="7648.66" y2="9625.73" gradientTransform="matrix(0 .68 -.68 0 12570.63 1204.8)" gradientUnits="userSpaceOnUse"><stop offset="0" stop-color="#19398a" stop-opacity="0"/><stop offset=".03" stop-color="#1a3d8d" stop-opacity=".04"/><stop offset=".07" stop-color="#1d4996" stop-opacity=".15"/><stop offset=".13" stop-color="#225ca5" stop-opacity=".33"/><stop offset=".2" stop-color="#2877ba" stop-opacity=".58"/><stop offset=".28" stop-color="#3098d4" stop-opacity=".9"/><stop offset=".3" stop-color="#33a3dc"/><stop offset=".32" stop-color="#33a3dc" stop-opacity=".96"/><stop offset=".34" stop-color="#33a3dc" stop-opacity=".85"/><stop offset=".37" stop-color="#33a3dc" stop-opacity=".67"/><stop offset=".41" stop-color="#33a3dc" stop-opacity=".42"/><stop offset=".45" stop-color="#33a3dc" stop-opacity=".1"/><stop offset=".46" stop-color="#33a3dc" stop-opacity=".05"/><stop offset=".84" stop-color="#33a3dc" stop-opacity=".04"/><stop offset=".98" stop-color="#33a3dc" stop-opacity=".01"/><stop offset="1" stop-color="#33a3dc" stop-opacity="0"/></linearGradient><linearGradient id="G" x1="-13472.98" y1="-5031.57" x2="-5861.29" y2="-5031.57" xlink:href="#b"/><linearGradient id="H" x1="-12883.65" y1="-4384.86" x2="-5719.55" y2="-4384.86" xlink:href="#b"/><linearGradient id="I" x1="-13587.35" y1="-5268.36" x2="-5913.96" y2="-5268.36" xlink:href="#b"/><linearGradient id="J" x1="-10692.1" y1="-8020.5" x2="-7211.15" y2="-8020.5" xlink:href="#b"/><linearGradient id="K" x1="-13604.35" y1="-6021.41" x2="-6109.1" y2="-6021.41" xlink:href="#b"/><linearGradient id="L" x1="-13655.95" y1="-5769.29" x2="-6034.18" y2="-5769.29" xlink:href="#b"/><linearGradient id="M" x1="-13654.48" y1="-5511.46" x2="-5968.59" y2="-5511.46" xlink:href="#b"/><linearGradient id="N" x1="-8727.31" y1="-3627.3" x2="-5481.85" y2="-3627.3" xlink:href="#b"/><linearGradient id="O" x1="-9328.03" y1="-3599.57" x2="-5481.6" y2="-3599.57" xlink:href="#b"/><linearGradient id="P" x1="-9900.63" y1="-3604.71" x2="-5493.45" y2="-3604.71" xlink:href="#b"/><linearGradient id="Q" x1="-10449.21" y1="-3636.85" x2="-5514.3" y2="-3636.85" xlink:href="#b"/><linearGradient id="R" x1="-6827.1" y1="-3761.41" x2="-5654.08" y2="-3761.41" xlink:href="#b"/><linearGradient id="S" x1="-13517.79" y1="-6267.46" x2="-6184.3" y2="-6267.46" xlink:href="#b"/><linearGradient id="T" x1="-9485.46" y1="-8295.1" x2="-7884.26" y2="-8295.1" xlink:href="#b"/><linearGradient id="U" x1="-8079.41" y1="-3689.16" x2="-5491.8" y2="-3689.16" xlink:href="#b"/><linearGradient id="V" x1="-7528.99" y1="-3686.05" x2="-5533.05" y2="-3686.05" xlink:href="#b"/><linearGradient id="W" x1="-12583.5" y1="-4196.1" x2="-5679.67" y2="-4196.1" xlink:href="#b"/><linearGradient id="X" x1="-11859.45" y1="-3900.46" x2="-5603.34" y2="-3900.46" xlink:href="#b"/><linearGradient id="Y" x1="-13330.65" y1="-4813.34" x2="-5806.63" y2="-4813.34" xlink:href="#b"/><linearGradient id="Z" x1="-13344.95" y1="-6523.1" x2="-6271" y2="-6523.1" xlink:href="#b"/><linearGradient id="aa" x1="-11399.24" y1="-3783.57" x2="-5570.04" y2="-3783.57" xlink:href="#b"/><linearGradient id="ab" x1="-10929.27" y1="-3702.41" x2="-5540.37" y2="-3702.41" xlink:href="#b"/><linearGradient id="ac" x1="-12251.03" y1="-4040.73" x2="-5644.65" y2="-4040.73" xlink:href="#b"/><linearGradient id="ad" x1="-13123.82" y1="-4584.61" x2="-5764.34" y2="-4584.61" xlink:href="#b"/><linearGradient id="ae" x1="-11716.3" y1="-7651" x2="-6824.07" y2="-7651" xlink:href="#b"/><linearGradient id="af" x1="-12516.54" y1="-7222.8" x2="-6563.72" y2="-7222.8" xlink:href="#b"/><linearGradient id="ag" x1="-13125.38" y1="-6772.38" x2="-6363.82" y2="-6772.38" xlink:href="#b"/><linearGradient id="ah" x1="-12856.98" y1="-6995.8" x2="-6457.74" y2="-6995.8" xlink:href="#b"/><linearGradient id="ai" x1="-12140.43" y1="-7435.38" x2="-6698.83" y2="-7435.38" xlink:href="#b"/><linearGradient id="aj" x1="-11281.54" y1="-7839.11" x2="-6979.91" y2="-7839.11" xlink:href="#b"/></defs><path d="M5950.31 4633.44s39.53 115.7 45 134.67l79.53 1538c-7.26 33.81-14.73 78.3-23.29 111.36-110.94-918.22-110.84-1525.38-101.24-1784.03z" fill="url(#a)"/><path d="M2464.29 2365.18l28.27-11.49L5307 7520.8c-9.54 6.34-19.32 12.42-29 18.59C3986.87 5517.94 2798.32 3069 2464.29 2365.18z" fill="url(#c)"/><path d="M1762.9 2779.26l28.33-23.93L5127 7624.44c-10.09 5-20.18 10-30.34 14.72-1482.2-1861.37-2926.26-4189.7-3333.76-4859.9z" fill="url(#d)"/><path d="M2731.23 2282.33l31.53-6.59 2599.69 5206.33c-9.54 6.91-19.19 13.63-28.89 20.37-1209.01-2048.8-2297.67-4513.76-2602.33-5220.11z" fill="url(#e)"/><path d="M5988.8 6621.17c-210.34-1455.3-178.87-2245.87-170.37-2372.29l21.8 71.48 176.87 2216.86q-13.43 42.44-28.3 83.95z" fill="url(#f)"/><path d="M3589.68 2264.16l35.35 5.76 1903.28 5074.75c-9.78 9.36-19.81 18.46-29.83 27.58-962.33-2116.03-1704.23-4444.97-1908.8-5108.09z" fill="url(#g)"/><path d="M3301.23 2229l37 5.21 2135.77 5159c-9.83 8.55-19.63 17.13-29.69 25.45C4397 5315.19 3538.14 2911.89 3301.23 2229z" fill="url(#h)"/><path d="M3009.33 2232.31l32.27-2.32L5415.18 7442q-14.2 11.23-28.71 22.18C4247.79 5369.54 3278.39 2928.42 3009.33 2232.31z" fill="url(#i)"/><path d="M1538.21 5587.9l2770.33 2211.8q-37.78-.77-75.82-3c-709.92-503.91-1315.06-959-1799.52-1353.48l-.1-.08c-421.61-343.3-678-581.33-811.78-715.84-10.54-22.84-83.11-139.4-83.11-139.4z" fill="url(#j)"/><path d="M4448.88 7797.76q-29.31 1.5-58.85 2.11c-447.28-336.39-869.87-666.24-1256.49-981.05C2165.46 6030.54 1636.78 5515.16 1406 5275.43l-44-96.93z" fill="url(#k)"/><path d="M4528.86 7791.8c-111.72-89.21-223.38-179.2-332.79-268.28-.08-.08 0 0-.13-.11-1590.5-1295.1-2589.25-2300.57-2934.67-2662.15l-20.14-73 3337.41 2998.22q-24.73 3.02-49.68 5.32z" fill="url(#l)"/><path d="M1180.71 4414.41l3503.71 3356.06c-14.09 2.57-28.24 4.88-42.41 7.12-1720.72-1459.36-2980-2770.87-3446.31-3275.22z" fill="url(#m)"/><path d="M2488.42 6998.15c-17.48-17.32-111.85-115.24-111.85-115.24l1270.59 799.4c-398.81-128.83-797.05-361.88-1158.74-684.16z" fill="url(#n)"/><path d="M3869.4 2323.15l38.49 12.81L5583 7289.34q-15.36 16-31.19 31.64C4671 5185.08 4040.4 2951.48 3869.4 2323.15z" fill="url(#o)"/><path d="M6103.47 6162.44c-13.42-322.55-26.84-736.32-35.36-1091.18h.31c70.27 354.64 84.73 701 44.66 1021.7z" fill="url(#p)"/><path d="M1749.69 6029.45l2429.49 1763.47c-32.19-2.68-64.46-6-96.84-10.22-917.81-588.3-1589.21-1054.37-1996.19-1385.76h-.05c-92.4-75.25-132.29-107.28-194.23-167-23.95-38.56-142.18-200.49-142.18-200.49z" fill="url(#q)"/><path d="M1973 6404.56l1977.1 1360.25c-48.5-9.09-117.17-24-165.87-36.24-771.27-501.17-1242.57-813-1556.31-1034.73z" fill="url(#r)"/><path d="M1595.48 2959.86l3468.93 4694c-10.51 4.65-21.1 9.11-31.69 13.55C3557 5937.29 2116.94 3820.2 1567.79 2992z" fill="url(#s)"/><path d="M1294.39 3500.19l17.72-46.87 3621.34 4252c-11.45 3.95-22.9 7.91-34.44 11.58C3313.41 6089.73 1854.77 4231 1294.39 3500.19z" fill="url(#t)"/><path d="M5244.76 7560c-9.9 6-19.81 11.91-29.82 17.65C3854.53 5602 2586.37 3166.55 2229.26 2465.29l28.21-14.6z" fill="url(#u)"/><path d="M4165.55 2440.94l39.93 17.72L5634.1 7233.53c-8.31 9.51-16.6 19.05-25.13 28.36-810.35-2163.32-1310.61-4241.24-1443.42-4820.95z" fill="url(#v)"/><path d="M1218 3767l3638.8 3962.68q-17.69 5.17-35.51 9.92C3146 6129.76 1740.45 4462.39 1210.61 3816z" fill="url(#w)"/><path d="M1180.71 4147.44l-1.36-60.19 3597.1 3663.82q-19.14 4.58-38.41 8.75c-1709.57-1542.49-3053.33-3035.5-3557.33-3612.38z" fill="url(#x)"/><path d="M1418 3219.59l20.76-33.13 3563.12 4493.77c-10.63 4.2-21.4 8.07-32.11 12.05C3355.8 5925.13 1844.05 3823.33 1418 3219.59z" fill="url(#y)"/><path d="M5160.42 7607.61C3728.48 5678.35 2359.37 3295.16 1973 2609l27-17.35 3189.37 5000.21c-9.65 5.27-19.24 10.66-28.95 15.75z" fill="url(#z)"/><path d="M5430.33 3550.88l17.72 30.21 452 3250.21q-13.28 27.12-27.26 53.67c-484.01-2508.88-443.04-3323.4-442.46-3334.09z" fill="url(#A)"/><path d="M4957.88 3005.52l33 33.88 800.35 3985.14c-8.18 12.75-16.61 25.35-25.08 37.86-582.72-2228-766.87-3674.76-808.27-4056.88z" fill="url(#B)"/><path d="M4447.83 2590.58l40.5 23.31 1201.93 4552.26c-8.66 11-17.5 21.75-26.41 32.48-729.61-2175.51-1116.14-4081.58-1216.02-4608.05z" fill="url(#C)"/><path d="M4706 2773.5l35.07 34.11 994.06 4299c-6.81 9.39-13.57 18.81-20.55 28C5062 4930.52 4776.41 3232.17 4706 2773.5z" fill="url(#D)"/><path d="M5191.07 3261.83l33.54 41.68 621.61 3630c-7 12.41-14.27 24.64-21.55 36.86-496.54-2187.89-611.29-3399.07-633.6-3708.54z" fill="url(#E)"/><path d="M5671.89 3960.47l278.42 2759.76q-12.35 29.55-25.47 58.53C5659 5089 5632.32 4132.83 5634.1 3847.18z" fill="url(#F)"/><path d="M3123.74 7.46S3245.8.16 3265.5 0L4769 333.05c30.67 16 71.56 35.05 101.14 52.11-914.49-137.7-1499.66-299.56-1746.4-377.7z" fill="url(#b)"/><path d="M8.73 2763.19l-3.54-30.28 5730.16-1336.15c3.58 10.91 6.81 21.93 10.22 32.93C3453.19 2135.57 776.08 2628.72 8.73 2763.19z" fill="url(#G)"/><path d="M221 3549.54l-15.51-33.67 5581.82-1918c2.13 11 4.22 22.1 6.13 33.17C3604.43 2563.75 975.54 3335.37 221 3549.54z" fill="url(#H)"/><path d="M0 2483.82l2-32.14L5712.79 1333c4.13 11 8.05 22.13 11.94 33.26C3427.89 1985.74 762 2378.35 0 2483.82z" fill="url(#I)"/><path d="M5049.89 499.91C3591.15 314.92 2837.53 74 2718 32.1l74.71-2 2183.84 420.14q37.29 24.27 73.34 49.67z" fill="url(#J)"/><path d="M211.18 1651.59l15-32.53 5398.38-482.56c6.41 11.93 12.52 24 18.64 36.12-2295.94 363.8-4738.36 458.43-5432.02 478.97z" fill="url(#K)"/><path d="M100.44 1920.22L115.3 1886l5541.58-684.16c5.62 11.75 11.28 23.49 16.62 35.4-2306.5 449-4851.72 636.56-5573.06 682.98z" fill="url(#L)"/><path d="M25.87 2202.45l6.37-31.71 5656-899.26q7.05 16.69 13.73 33.58c-2322.31 539.49-4933.46 823.51-5676.1 897.39z" fill="url(#M)"/><path d="M2868.26 4514.37l2869.92-2080.92q-10.83 36.23-23.08 72.28c-674.83 550-1274.68 1012-1784 1373.92l-.12.07c-443.21 314.9-741 498.6-906.23 591.72-24.82 4.04-156.49 42.93-156.49 42.93z" fill="url(#N)"/><path d="M5773.7 2297.64q-6.37 28.68-13.63 57.29c-443.42 341.49-873.93 660.94-1280.34 949.71C3462.05 4027.72 2824.45 4400 2531.9 4558.52l-105.15 16.64z" fill="url(#O)"/><path d="M5789.26 2219c-115.75 83.88-232.26 167.53-347.26 249.25l-.13.1c-1672 1188-2907.24 1882.76-3347.75 2119.37h-75.74l3779-2418q-3.71 24.59-8.12 49.28z" fill="url(#P)"/><path d="M1641.93 4546.32l4168.21-2483c-1.28 14.25-2.81 28.52-4.43 42.77-1865.06 1269.73-3464.64 2134.05-4075 2449.18z" fill="url(#Q)"/><path d="M4480.69 3974.21c-21.34 12.27-140.88 77.12-140.88 77.12l1109-1011.7c-230.4 350.07-561.13 671.84-968.12 934.58z" fill="url(#R)"/><path d="M342.57 1397.66l22.6-33.68 5220.64-294.92q11.37 19.08 22.2 38.49c-2293.38 279.91-4614.26 292.69-5265.44 290.11z" fill="url(#S)"/><path d="M4638.29 267.22c-314.47-73-716.85-170.31-1061.17-256.63v-.31c360.56 26.72 698.25 105.07 996.72 229.15z" fill="url(#T)"/><path d="M3350.19 4428.18l2347-1871.86q-16.76 45.46-35.63 90.64C4850 3374.83 4221.88 3897.79 3794 4201.78c-97.14 69-138.65 98.94-212.63 142.73-43.6 12.85-231.18 83.67-231.18 83.67z" fill="url(#U)"/><path d="M3771.24 4312.89l1837.81-1543.26c-21.68 44.3-54.29 106.56-79.12 150.23-688.53 609.87-1114.65 981.06-1412 1224.38z" fill="url(#V)"/><path d="M350.47 3759L5799 1666c1.69 11.36 3.17 22.76 4.61 34.15-2060.78 961.49-4485 1785.47-5429.57 2094.09z" fill="url(#W)"/><path d="M791.05 4193.19l-40.45-29.59L5813.68 1806c.77 12.09 1.53 24.18 2 36.29C3824.89 2937 1644.71 3847.75 791.05 4193.19z" fill="url(#X)"/><path d="M5756.52 1467.17c3.12 11.13 6.21 22.26 9.07 33.43C3499 2285.53 813.67 2859 42.6 3016.42l-6.55-31.09z" fill="url(#Y)"/><path d="M535 1143.64l27.71-33.78 4982.89-104.92c6.95 10.54 13.94 21.07 20.64 31.77C3265.23 1241.44 1129.14 1170 535 1143.64z" fill="url(#Z)"/><path d="M1027.83 4337.86l4789-2451.54q.27 18.39.1 36.87c-1998 1185.87-3979.57 2096.41-4743.73 2434.9z" fill="url(#aa)"/><path d="M1384.62 4475.19l-58.39-14.71 4489.77-2491q-.68 19.66-1.79 39.35C3872 3245.67 2074.92 4143.11 1384.62 4475.19z" fill="url(#ab)"/><path d="M553.52 3999.3l-26.4-28.85 5280.62-2237.14c1.22 11.37 2.08 22.79 3.07 34.17-2133.28 1084.84-4561.9 1982-5257.29 2231.82z" fill="url(#ac)"/><path d="M5780 1561.16C3539 2427.37 877.13 3112.06 112.84 3301.69L103.3 3271l5669.16-1741.91c2.54 10.67 5.2 21.35 7.54 32.07z" fill="url(#ad)"/><path d="M1941.79 220.24l33.83-9 3253.18 430.2q22.59 20 44.46 40.57C2726.09 480.14 1951.93 223.64 1941.79 220.24z" fill="url(#ae)"/><path d="M1290.27 530.32l41.44-22.77 4054.35 290.28q15.15 17 29.81 34.26c-2302.74-31.93-3746.27-239.87-4125.6-301.77z" fill="url(#af)"/><path d="M754.44 911.39l33.25-32.83 4708 54.3c8.26 11.27 16.3 22.65 24.26 34.11-2291.31 123.64-4231.47-11.59-4765.51-55.58z" fill="url(#ag)"/><path d="M999.53 711.24l42.26-24.72 4408.4 187.17c7.25 9.06 14.51 18.1 21.56 27.26-2298.32 41.84-4011.38-135.34-4472.22-189.71z" fill="url(#ah)"/><path d="M1599.43 373.84l49.12-21.25 3664.37 367.93c10.1 10.08 19.95 20.32 29.79 30.6-2241.07-104.27-3439.05-316.34-3743.28-377.28z" fill="url(#ai)"/><path d="M2400.91 96.52L5135.12 563.4q25.22 19.77 49.64 40.14C3485.24 409.59 2556.51 180.59 2281.65 102.76z" fill="url(#aj)"/></svg>